<svg width="1920" height="1080" viewBox="0 0 1920 1080" fill="none" xmlns="http://www.w3.org/2000/svg">
<g clip-path="url(#clip0_156_39)">
<path opacity="0.5" d="M43.0405 769.948L175.031 998.599L43.0405 1227.25H-220.941L-352.931 998.599L-220.941 769.948H43.0405Z" fill="url(#paint0_linear_156_39)"/>
<path style="mix-blend-mode:multiply" opacity="0.7" d="M173.982 541.296L305.972 769.947L173.982 998.599H-89.9992L-221.99 769.947L-89.9992 541.296H173.982Z" fill="url(#paint1_linear_156_39)"/>
<path opacity="0.5" d="M1871.93 435.425L1739.91 206.774L1871.93 -21.8468H2135.91L2267.91 206.774L2135.91 435.425H1871.93Z" fill="url(#paint2_linear_156_39)"/>
<path style="mix-blend-mode:multiply" opacity="0.7" d="M1740.99 664.077L1609 435.425L1740.99 206.774H2004.97L2136.96 435.425L2004.97 664.077H1740.99Z" fill="url(#paint3_linear_156_39)"/>
<path d="M1634 1001L1609.75 1043H1561.25L1537 1001L1561.25 959H1609.75L1634 1001ZM1538.59 1001L1562.03 1041.61H1608.93L1632.37 1001L1608.93 960.391H1562.03L1538.59 1001Z" fill="#FC690D"/>
<path d="M1705 960L1681 1002H1633L1609 960L1633 918H1681L1705 960ZM1610.58 960L1633.78 1000.61H1680.19L1703.39 960L1680.19 919.39H1633.78L1610.58 960Z" fill="#FC690D"/>
<path d="M1743.8 815.739L1699.15 893.098H1609.83L1565.19 815.739L1609.83 738.38H1699.15L1743.8 815.739ZM1568.12 815.739L1611.28 890.537H1697.64L1740.81 815.739L1697.64 740.942H1611.28L1568.12 815.739Z" fill="#FC690D"/>
<path d="M1553 953L1528.75 995H1480.25L1456 953L1480.25 911H1528.75L1553 953ZM1457.59 953L1481.03 993.609H1527.93L1551.37 953L1527.93 912.39H1481.03L1457.59 953Z" fill="#FC690D"/>
<path d="M1875.64 891.802L1830.99 969.161H1741.67L1697.03 891.802L1741.67 814.443H1830.99L1875.64 891.802ZM1699.96 891.802L1743.12 966.6H1829.48L1872.64 891.802L1829.48 817.005H1743.12L1699.96 891.802Z" fill="#FC690D"/>
<path d="M2007.72 967.865L1963.07 1045.22H1873.75L1829.11 967.865L1873.75 890.506H1963.07L2007.72 967.865ZM1832.04 967.865L1875.2 1042.66H1961.56L2004.73 967.865L1961.56 893.068H1875.2L1832.04 967.865Z" fill="#FC690D"/>
<path d="M2007.72 815.739L1963.07 893.098H1873.75L1829.11 815.739L1873.75 738.38H1963.07L2007.72 815.739ZM1832.04 815.739L1875.2 890.537H1961.56L2004.73 815.739L1961.56 740.942H1875.2L1832.04 815.739Z" fill="#FC690D"/>
<path d="M570.201 -40.0216L614.845 -117.38H704.166L748.811 -40.0216L704.166 37.3372H614.845L570.201 -40.0216ZM745.88 -40.0216L702.716 -114.819H616.357L573.193 -40.0216L616.357 34.7761H702.716L745.88 -40.0216Z" fill="#FC690D"/>
<path opacity="0.1" d="M570.201 264.261L614.845 186.902H704.166L748.811 264.261L704.166 341.619H614.845L570.201 264.261ZM745.88 264.261L702.716 189.463H616.357L573.193 264.261L616.357 339.058H702.716L745.88 264.261Z" fill="#FC690D"/>
<path d="M306.281 -40.0216L350.926 -117.38H440.246L484.891 -40.0216L440.246 37.3372H350.926L306.281 -40.0216ZM481.96 -40.0216L438.796 -114.819H352.438L309.274 -40.0216L352.438 34.7761H438.796L481.96 -40.0216Z" fill="#FC690D"/>
<path d="M-140.874 116.825L-229.917 -37.3988L-140.874 -191.623H37.1803L126.223 -37.3988L37.1803 116.825H-140.874Z" fill="url(#paint4_linear_156_39)"/>
<path d="M-96.0134 490.042L-182.773 339.768L-96.0134 189.494H77.5058L164.265 339.768L77.5058 490.042H-96.0134Z" fill="url(#paint5_linear_156_39)"/>
<path d="M2007.94 815.678L1919.73 662.904L2007.94 510.161H2184.29L2272.47 662.904L2184.29 815.678H2007.94Z" fill="url(#paint6_linear_156_39)"/>
<path opacity="0.5" d="M1818.51 592L1719 419.988L1818.51 248H2017.52L2117 419.988L2017.52 592H1818.51Z" fill="url(#paint7_linear_156_39)"/>
<path d="M1645.72 97.6948L1580 -16.1371L1645.72 -130H1777.15L1842.87 -16.1371L1777.15 97.6948H1645.72Z" fill="url(#paint8_linear_156_39)"/>
<path opacity="0.5" d="M86.7777 827.128L-1 675.064L86.7777 523H262.333L350.111 675.064L262.333 827.128H86.7777Z" fill="url(#paint9_linear_156_39)"/>
<path opacity="0.5" d="M-53.2223 644.097L-141 492.064L-53.2223 340H122.333L210.111 492.064L122.333 644.097H-53.2223Z" fill="url(#paint10_linear_156_39)"/>
<path d="M934.702 -364.114L540.334 319.001" stroke="white" stroke-miterlimit="10"/>
<path d="M222.298 -343.039L486.156 114.048" stroke="white" stroke-miterlimit="10"/>
<path d="M572.329 -193.443L353.055 188.198" stroke="white" stroke-miterlimit="10"/>
<g opacity="0.1">
<path d="M-92.1782 187.93L-47.5334 110.571H41.7869L86.4317 187.93L41.7869 265.289H-47.5334L-92.1782 187.93ZM83.4698 187.93L40.3059 113.133H-46.0525L-89.2163 187.93L-46.0525 262.728H40.3059L83.4698 187.93Z" fill="#FC690D"/>
<path d="M834.12 -40.0216L878.765 -117.38H968.085L1012.73 -40.0216L968.085 37.3372H878.765L834.12 -40.0216ZM1009.8 -40.0216L966.635 -114.819H880.277L837.113 -40.0216L880.277 34.7761H966.635L1009.8 -40.0216Z" fill="#FC690D"/>
<path d="M702.284 36.0412L746.928 -41.3176H836.249L880.894 36.0412L836.249 113.4H746.928L702.284 36.0412ZM877.963 36.0412L834.799 -38.7565H748.44L705.276 36.0412L748.44 110.839H834.799L877.963 36.0412Z" fill="#FC690D"/>
<path d="M570.201 112.135L614.845 34.7761H704.166L748.811 112.135L704.166 189.494H614.845L570.201 112.135ZM745.88 112.135L702.716 37.3372H616.357L573.193 112.135L616.357 186.933H702.716L745.88 112.135Z" fill="#FC690D"/>
<path d="M438.364 188.198L483.009 110.839H572.329L616.974 188.198L572.329 265.557H483.009L438.364 188.198ZM614.043 188.198L570.879 113.4H484.521L441.357 188.198L484.521 262.996H570.879L614.043 188.198Z" fill="#FC690D"/>
<path d="M306.281 264.261L350.926 186.902H440.246L484.891 264.261L440.246 341.62H350.926L306.281 264.261ZM481.96 264.261L438.796 189.463H352.438L309.274 264.261L352.438 339.058H438.796L481.96 264.261Z" fill="#FC690D"/>
<path d="M174.445 188.198L219.09 110.839H308.41L353.055 188.198L308.41 265.557H219.09L174.445 188.198ZM350.124 188.198L306.96 113.4H220.601L177.438 188.198L220.601 262.996H306.96L350.124 188.198Z" fill="#FC690D"/>
<path d="M174.445 340.354L219.09 262.996H308.41L353.055 340.354L308.41 417.713H219.09L174.445 340.354ZM350.124 340.354L306.96 265.557H220.601L177.438 340.354L220.601 415.152H306.96L350.124 340.354Z" fill="#FC690D"/>
<path d="M42.3618 -40.0216L87.0066 -117.38H176.327L220.972 -40.0216L176.327 37.3372H87.0066L42.3618 -40.0216ZM218.041 -40.0216L174.877 -114.819H88.5184L45.3237 -40.0216L88.4876 34.7761H174.846L218.01 -40.0216H218.041Z" fill="#FC690D"/>
<path d="M42.3618 264.261L87.0066 186.902H176.327L220.972 264.261L176.327 341.62H87.0066L42.3618 264.261ZM218.041 264.261L174.877 189.463H88.5184L45.3546 264.261L88.5184 339.058H174.877L218.041 264.261Z" fill="#FC690D"/>
<path d="M87.0063 341.62H440.246L481.96 264.261H748.81" stroke="white" stroke-miterlimit="10"/>
</g>
<path d="M902.985 -79.8892L836.804 34.776H702.284" stroke="white" stroke-miterlimit="10"/>
<path opacity="0.5" d="M1786.01 1043.9L1697.92 891.339L1786.01 738.751H1962.18L2050.24 891.339L1962.18 1043.9H1786.01Z" fill="url(#paint11_linear_156_39)"/>
<path d="M1829.51 970.426H1918.55L2032.46 773.126H2451.3" stroke="white" stroke-miterlimit="10"/>
<path d="M1962.18 1043.9L1743.15 1423.04" stroke="white" stroke-miterlimit="10"/>
<path d="M2273.03 434.067L2140.33 663.953H1919.73" stroke="white" stroke-miterlimit="10"/>
<path d="M1694.99 1042.76L1519.43 1346.88" stroke="white" stroke-miterlimit="10"/>
<path d="M1609.83 893.068H1873.75L1961.59 740.942" stroke="white" stroke-miterlimit="10"/>
</g>
<defs>
<linearGradient id="paint0_linear_156_39" x1="-4.78216" y1="1147.67" x2="-231.01" y2="747.014" gradientUnits="userSpaceOnUse">
<stop stop-color="#81C0E9"/>
<stop offset="0.17" stop-color="#93C9EC" stop-opacity="0.7225"/>
<stop offset="0.56" stop-color="#C3E1F4" stop-opacity="0.2209"/>
<stop offset="1" stop-color="white" stop-opacity="0"/>
</linearGradient>
<linearGradient id="paint1_linear_156_39" x1="126.128" y1="919.049" x2="-100.069" y2="518.362" gradientUnits="userSpaceOnUse">
<stop stop-color="#81C0E9"/>
<stop offset="0.17" stop-color="#93C9EC" stop-opacity="0.7225"/>
<stop offset="0.56" stop-color="#C3E1F4" stop-opacity="0.2209"/>
<stop offset="1" stop-color="white" stop-opacity="0"/>
</linearGradient>
<linearGradient id="paint2_linear_156_39" x1="1919.76" y1="57.7029" x2="2145.98" y2="458.39" gradientUnits="userSpaceOnUse">
<stop stop-color="#81C0E9"/>
<stop offset="0.17" stop-color="#93C9EC" stop-opacity="0.7225"/>
<stop offset="0.56" stop-color="#C3E1F4" stop-opacity="0.2209"/>
<stop offset="1" stop-color="white" stop-opacity="0"/>
</linearGradient>
<linearGradient id="paint3_linear_156_39" x1="1788.85" y1="286.354" x2="2015.04" y2="687.041" gradientUnits="userSpaceOnUse">
<stop stop-color="#81C0E9"/>
<stop offset="0.17" stop-color="#93C9EC" stop-opacity="0.7225"/>
<stop offset="0.56" stop-color="#C3E1F4" stop-opacity="0.2209"/>
<stop offset="1" stop-color="white" stop-opacity="0"/>
</linearGradient>
<linearGradient id="paint4_linear_156_39" x1="-141.121" y1="-189.771" x2="39.4658" y2="118.41" gradientUnits="userSpaceOnUse">
<stop stop-color="#FDEC56"/>
<stop offset="1" stop-color="#FC6621"/>
</linearGradient>
<linearGradient id="paint5_linear_156_39" x1="-96.2293" y1="191.283" x2="79.7287" y2="491.597" gradientUnits="userSpaceOnUse">
<stop stop-color="#FDEC56"/>
<stop offset="1" stop-color="#FC6621"/>
</linearGradient>
<linearGradient id="paint6_linear_156_39" x1="2007.69" y1="511.982" x2="2186.55" y2="817.232" gradientUnits="userSpaceOnUse">
<stop stop-color="#FDEC56"/>
<stop offset="1" stop-color="#FC6621"/>
</linearGradient>
<linearGradient id="paint7_linear_156_39" x1="1818.25" y1="250.051" x2="2019.41" y2="594.127" gradientUnits="userSpaceOnUse">
<stop stop-color="#FE9113"/>
<stop offset="1" stop-color="white"/>
</linearGradient>
<linearGradient id="paint8_linear_156_39" x1="1645.53" y1="-128.611" x2="1778.84" y2="98.8531" gradientUnits="userSpaceOnUse">
<stop stop-color="#FDEC56"/>
<stop offset="1" stop-color="#FC6621"/>
</linearGradient>
<linearGradient id="paint9_linear_156_39" x1="86.5309" y1="524.821" x2="264.587" y2="828.683" gradientUnits="userSpaceOnUse">
<stop stop-color="#FE9113"/>
<stop offset="1" stop-color="white"/>
</linearGradient>
<linearGradient id="paint10_linear_156_39" x1="-53.4691" y1="341.821" x2="124.587" y2="645.652" gradientUnits="userSpaceOnUse">
<stop stop-color="#FE9113"/>
<stop offset="1" stop-color="white"/>
</linearGradient>
<linearGradient id="paint11_linear_156_39" x1="1785.79" y1="740.571" x2="1964.43" y2="1045.45" gradientUnits="userSpaceOnUse">
<stop stop-color="#FE9113"/>
<stop offset="1" stop-color="white"/>
</linearGradient>
<clipPath id="clip0_156_39">
<rect width="2314" height="1080" fill="white"/>
</clipPath>
</defs>
</svg>
