<svg width="105" height="105" viewBox="0 0 105 105" fill="none" xmlns="http://www.w3.org/2000/svg">
<g filter="url(#filter0_d_16_91)">
<circle cx="52.5" cy="48.5" r="48.5" fill="#2286BB"/>
</g>
<path d="M67.5 27.25C70.0637 27.25 72.5225 28.2684 74.3353 30.0813C76.1482 31.8942 77.1666 34.3529 77.1666 36.9167V56.25C77.1666 58.8138 76.1482 61.2725 74.3353 63.0854C72.5225 64.8982 70.0637 65.9167 67.5 65.9167H56.0836L44.5755 72.8211C44.2289 73.0291 43.8357 73.1468 43.4318 73.1635C43.028 73.1802 42.6264 73.0954 42.2638 72.9167C41.9013 72.7381 41.5893 72.4714 41.3565 72.141C41.1236 71.8106 40.9774 71.427 40.9311 71.0255L40.9166 70.75V65.9167H38.5C36.0199 65.9167 33.6347 64.9635 31.8377 63.2542C30.0407 61.5449 28.9694 59.2103 28.8454 56.7333L28.8333 56.25V36.9167C28.8333 34.3529 29.8518 31.8942 31.6646 30.0813C33.4775 28.2684 35.9362 27.25 38.5 27.25H67.5ZM60.7333 49.6912C60.2756 49.2426 59.6585 48.9941 59.0177 49.0005C58.3769 49.0068 57.7648 49.2674 57.3161 49.725C56.7536 50.2993 56.0821 50.7556 55.3409 51.0671C54.5998 51.3786 53.8039 51.5391 53 51.5391C52.196 51.5391 51.4002 51.3786 50.659 51.0671C49.9179 50.7556 49.2464 50.2993 48.6838 49.725C48.2329 49.278 47.6241 49.0264 46.9891 49.0247C46.3542 49.0229 45.744 49.2711 45.2906 49.7156C44.8372 50.1602 44.577 50.7653 44.5662 51.4001C44.5553 52.035 44.7948 52.6486 45.2328 53.1083C46.2453 54.1416 47.4538 54.9624 48.7875 55.5227C50.1212 56.0831 51.5533 56.3717 53 56.3717C54.4466 56.3717 55.8787 56.0831 57.2124 55.5227C58.5461 54.9624 59.7546 54.1416 60.7671 53.1083C61.2157 52.6507 61.4642 52.0336 61.4578 51.3927C61.4515 50.7519 61.1909 50.1399 60.7333 49.6912ZM46.9825 39.3333H46.9583C46.3174 39.3333 45.7027 39.5879 45.2495 40.0412C44.7963 40.4944 44.5416 41.1091 44.5416 41.75C44.5416 42.3909 44.7963 43.0056 45.2495 43.4588C45.7027 43.9121 46.3174 44.1667 46.9583 44.1667H46.9825C47.6234 44.1667 48.2381 43.9121 48.6913 43.4588C49.1445 43.0056 49.3991 42.3909 49.3991 41.75C49.3991 41.1091 49.1445 40.4944 48.6913 40.0412C48.2381 39.5879 47.6234 39.3333 46.9825 39.3333ZM59.0658 39.3333H59.0416C58.4007 39.3333 57.786 39.5879 57.3328 40.0412C56.8796 40.4944 56.625 41.1091 56.625 41.75C56.625 42.3909 56.8796 43.0056 57.3328 43.4588C57.786 43.9121 58.4007 44.1667 59.0416 44.1667H59.0658C59.7068 44.1667 60.3214 43.9121 60.7747 43.4588C61.2279 43.0056 61.4825 42.3909 61.4825 41.75C61.4825 41.1091 61.2279 40.4944 60.7747 40.0412C60.3214 39.5879 59.7068 39.3333 59.0658 39.3333Z" fill="white"/>
<defs>
<filter id="filter0_d_16_91" x="0" y="0" width="105" height="105" filterUnits="userSpaceOnUse" color-interpolation-filters="sRGB">
<feFlood flood-opacity="0" result="BackgroundImageFix"/>
<feColorMatrix in="SourceAlpha" type="matrix" values="0 0 0 0 0 0 0 0 0 0 0 0 0 0 0 0 0 0 127 0" result="hardAlpha"/>
<feOffset dy="4"/>
<feGaussianBlur stdDeviation="2"/>
<feComposite in2="hardAlpha" operator="out"/>
<feColorMatrix type="matrix" values="0 0 0 0 0 0 0 0 0 0 0 0 0 0 0 0 0 0 0.25 0"/>
<feBlend mode="normal" in2="BackgroundImageFix" result="effect1_dropShadow_16_91"/>
<feBlend mode="normal" in="SourceGraphic" in2="effect1_dropShadow_16_91" result="shape"/>
</filter>
</defs>
</svg>
