<svg width="260" height="50" viewBox="0 0 267 57" fill="none" xmlns="http://www.w3.org/2000/svg">
<path d="M3.15021 22.8629L14.2439 4.77236C16.0621 1.80729 19.2905 0 22.7687 0H245.644C249.285 0 252.639 1.97969 254.399 5.16801L264.379 23.2516C266.014 26.2134 266.04 29.8009 264.449 32.7864L254.369 51.7027C252.632 54.9631 249.239 57 245.544 57H22.871C19.3375 57 16.0663 55.1353 14.2661 52.0948L3.07015 33.1853C1.18158 29.9956 1.21239 26.0229 3.15021 22.8629Z" fill="#2286BB"/>
<path d="M37.7496 21.744C39.2896 21.744 40.5802 21.9347 41.6216 22.316C42.6629 22.6973 43.4916 23.218 44.1076 23.878C44.7236 24.5233 45.1636 25.2713 45.4276 26.122C45.7062 26.9727 45.8456 27.8673 45.8456 28.806C45.8456 29.7593 45.6989 30.6687 45.4056 31.534C45.1122 32.3993 44.6429 33.1693 43.9976 33.844C43.3669 34.504 42.5382 35.032 41.5116 35.428C40.4849 35.8093 39.2309 36 37.7496 36H30.9076V21.744H37.7496ZM33.4156 33.8H37.7276C38.8129 33.8 39.7149 33.6607 40.4336 33.382C41.1522 33.1033 41.7242 32.7293 42.1496 32.26C42.5749 31.776 42.8756 31.2407 43.0516 30.654C43.2276 30.0527 43.3156 29.4367 43.3156 28.806C43.3156 28.1753 43.2276 27.574 43.0516 27.002C42.8756 26.4153 42.5749 25.8947 42.1496 25.44C41.7242 24.9707 41.1522 24.604 40.4336 24.34C39.7149 24.0613 38.8129 23.922 37.7276 23.922H33.4156V33.8ZM56.9691 32.392H59.3231C59.2058 33.14 58.9125 33.8073 58.4431 34.394C57.9885 34.966 57.3651 35.4207 56.5731 35.758C55.7811 36.0807 54.8351 36.242 53.7351 36.242C52.4885 36.242 51.3738 36.0147 50.3911 35.56C49.4085 35.0907 48.6385 34.4307 48.0811 33.58C47.5238 32.7293 47.2451 31.7173 47.2451 30.544C47.2451 29.3853 47.5165 28.3733 48.0591 27.508C48.6018 26.6427 49.3498 25.9753 50.3031 25.506C51.2711 25.0367 52.3858 24.802 53.6471 24.802C54.9525 24.802 56.0378 25.0367 56.9031 25.506C57.7831 25.9607 58.4358 26.65 58.8611 27.574C59.2865 28.4833 59.4625 29.6347 59.3891 31.028H49.7311C49.8045 31.644 50.0025 32.2013 50.3251 32.7C50.6625 33.184 51.1171 33.5653 51.6891 33.844C52.2611 34.108 52.9285 34.24 53.6911 34.24C54.5418 34.24 55.2531 34.0713 55.8251 33.734C56.4118 33.3967 56.7931 32.9493 56.9691 32.392ZM53.5811 26.782C52.5838 26.782 51.7625 27.0313 51.1171 27.53C50.4718 28.014 50.0538 28.6373 49.8631 29.4H56.9251C56.8665 28.5787 56.5365 27.9407 55.9351 27.486C55.3338 27.0167 54.5491 26.782 53.5811 26.782ZM61.0611 25.044H63.5031V36H61.0611V25.044ZM68.1231 24.802C68.7538 24.802 69.3331 24.89 69.8611 25.066C70.4038 25.242 70.8658 25.5133 71.2471 25.88C71.6431 26.232 71.9438 26.672 72.1491 27.2C72.3691 27.728 72.4791 28.3513 72.4791 29.07V36H70.0371V29.554C70.0371 28.6593 69.8171 27.9993 69.3771 27.574C68.9518 27.134 68.2771 26.914 67.3531 26.914C66.6491 26.914 66.0038 27.068 65.4171 27.376C64.8451 27.6693 64.3758 28.058 64.0091 28.542C63.6425 29.0113 63.4298 29.532 63.3711 30.104L63.3491 28.916C63.4225 28.3733 63.5838 27.86 63.8331 27.376C64.0825 26.8773 64.4125 26.4373 64.8231 26.056C65.2338 25.66 65.7178 25.352 66.2751 25.132C66.8325 24.912 67.4485 24.802 68.1231 24.802ZM76.8571 24.802C77.5025 24.802 78.0891 24.89 78.6171 25.066C79.1451 25.242 79.5998 25.5133 79.9811 25.88C80.3771 26.232 80.6851 26.672 80.9051 27.2C81.1251 27.728 81.2351 28.3513 81.2351 29.07V36H78.7711V29.554C78.7711 28.6593 78.5511 27.9993 78.1111 27.574C77.6858 27.134 77.0111 26.914 76.0871 26.914C75.3831 26.914 74.7378 27.068 74.1511 27.376C73.5791 27.6693 73.1098 28.058 72.7431 28.542C72.3911 29.0113 72.1858 29.532 72.1271 30.104L72.0831 28.872C72.1565 28.344 72.3251 27.838 72.5891 27.354C72.8531 26.8553 73.1905 26.4153 73.6011 26.034C74.0118 25.6527 74.4885 25.352 75.0311 25.132C75.5885 24.912 76.1971 24.802 76.8571 24.802ZM88.2985 36.242C87.3012 36.242 86.3845 36 85.5485 35.516C84.7272 35.032 84.0672 34.3647 83.5685 33.514C83.0845 32.6487 82.8425 31.6587 82.8425 30.544C82.8425 29.4 83.0918 28.4027 83.5905 27.552C84.0892 26.6867 84.7638 26.012 85.6145 25.528C86.4652 25.044 87.4185 24.802 88.4745 24.802C89.6478 24.802 90.5792 25.0587 91.2685 25.572C91.9578 26.0853 92.4492 26.7747 92.7425 27.64C93.0358 28.5053 93.1825 29.4733 93.1825 30.544C93.1825 31.1453 93.0945 31.7833 92.9185 32.458C92.7425 33.118 92.4638 33.734 92.0825 34.306C91.7158 34.878 91.2172 35.3473 90.5865 35.714C89.9705 36.066 89.2078 36.242 88.2985 36.242ZM89.0465 34.218C89.8678 34.218 90.5645 34.064 91.1365 33.756C91.7232 33.4333 92.1632 32.9933 92.4565 32.436C92.7645 31.8787 92.9185 31.248 92.9185 30.544C92.9185 29.7667 92.7645 29.1067 92.4565 28.564C92.1485 28.0067 91.7085 27.5813 91.1365 27.288C90.5645 26.98 89.8678 26.826 89.0465 26.826C87.8732 26.826 86.9638 27.1707 86.3185 27.86C85.6732 28.5493 85.3505 29.444 85.3505 30.544C85.3505 31.2627 85.5045 31.9007 85.8125 32.458C86.1352 33.0153 86.5752 33.448 87.1325 33.756C87.6898 34.064 88.3278 34.218 89.0465 34.218ZM92.9185 25.044H95.3825V36H93.0945C93.0945 36 93.0798 35.8607 93.0505 35.582C93.0212 35.3033 92.9918 34.966 92.9625 34.57C92.9332 34.1593 92.9185 33.7707 92.9185 33.404V25.044ZM97.5608 25.044H100.003V36H97.5608V25.044ZM104.623 24.802C105.254 24.802 105.833 24.89 106.361 25.066C106.904 25.242 107.366 25.5133 107.747 25.88C108.143 26.232 108.444 26.672 108.649 27.2C108.869 27.728 108.979 28.3513 108.979 29.07V36H106.537V29.554C106.537 28.6593 106.317 27.9993 105.877 27.574C105.452 27.134 104.777 26.914 103.853 26.914C103.149 26.914 102.504 27.068 101.917 27.376C101.345 27.6693 100.876 28.058 100.509 28.542C100.142 29.0113 99.9295 29.532 99.8708 30.104L99.8488 28.916C99.9222 28.3733 100.084 27.86 100.333 27.376C100.582 26.8773 100.912 26.4373 101.323 26.056C101.734 25.66 102.218 25.352 102.775 25.132C103.332 24.912 103.948 24.802 104.623 24.802ZM116.054 36.242C115.042 36.242 114.118 36 113.282 35.516C112.461 35.032 111.808 34.3647 111.324 33.514C110.84 32.6487 110.598 31.6587 110.598 30.544C110.598 29.4 110.833 28.4027 111.302 27.552C111.786 26.6867 112.431 26.012 113.238 25.528C114.059 25.044 114.998 24.802 116.054 24.802C116.978 24.802 117.755 24.956 118.386 25.264C119.017 25.5573 119.515 25.968 119.882 26.496C120.249 27.0093 120.513 27.6107 120.674 28.3C120.85 28.9893 120.938 29.7373 120.938 30.544C120.938 31.1453 120.85 31.7833 120.674 32.458C120.498 33.118 120.219 33.734 119.838 34.306C119.471 34.878 118.973 35.3473 118.342 35.714C117.726 36.066 116.963 36.242 116.054 36.242ZM116.802 34.218C117.623 34.218 118.32 34.064 118.892 33.756C119.479 33.4333 119.919 32.9933 120.212 32.436C120.52 31.8787 120.674 31.248 120.674 30.544C120.674 29.7667 120.52 29.1067 120.212 28.564C119.904 28.0067 119.464 27.574 118.892 27.266C118.32 26.958 117.623 26.804 116.802 26.804C115.629 26.804 114.719 27.156 114.074 27.86C113.429 28.5493 113.106 29.444 113.106 30.544C113.106 31.2627 113.26 31.9007 113.568 32.458C113.891 33.0153 114.331 33.448 114.888 33.756C115.445 34.064 116.083 34.218 116.802 34.218ZM120.674 20.644H123.138V36H120.85C120.821 35.6627 120.784 35.2447 120.74 34.746C120.696 34.2473 120.674 33.8 120.674 33.404V20.644ZM134.898 32.392H137.252C137.135 33.14 136.841 33.8073 136.372 34.394C135.917 34.966 135.294 35.4207 134.502 35.758C133.71 36.0807 132.764 36.242 131.664 36.242C130.417 36.242 129.303 36.0147 128.32 35.56C127.337 35.0907 126.567 34.4307 126.01 33.58C125.453 32.7293 125.174 31.7173 125.174 30.544C125.174 29.3853 125.445 28.3733 125.988 27.508C126.531 26.6427 127.279 25.9753 128.232 25.506C129.2 25.0367 130.315 24.802 131.576 24.802C132.881 24.802 133.967 25.0367 134.832 25.506C135.712 25.9607 136.365 26.65 136.79 27.574C137.215 28.4833 137.391 29.6347 137.318 31.028H127.66C127.733 31.644 127.931 32.2013 128.254 32.7C128.591 33.184 129.046 33.5653 129.618 33.844C130.19 34.108 130.857 34.24 131.62 34.24C132.471 34.24 133.182 34.0713 133.754 33.734C134.341 33.3967 134.722 32.9493 134.898 32.392ZM131.51 26.782C130.513 26.782 129.691 27.0313 129.046 27.53C128.401 28.014 127.983 28.6373 127.792 29.4H134.854C134.795 28.5787 134.465 27.9407 133.864 27.486C133.263 27.0167 132.478 26.782 131.51 26.782ZM138.99 25.044H141.432V36H138.99V25.044ZM145.392 27.134C144.6 27.134 143.918 27.3027 143.346 27.64C142.789 27.9773 142.341 28.388 142.004 28.872C141.667 29.356 141.432 29.8253 141.3 30.28L141.278 29.048C141.293 28.8867 141.344 28.6447 141.432 28.322C141.52 27.9847 141.652 27.618 141.828 27.222C142.019 26.826 142.268 26.4447 142.576 26.078C142.899 25.6967 143.287 25.3887 143.742 25.154C144.211 24.9193 144.761 24.802 145.392 24.802V27.134ZM162.716 36H160.274V25.044H162.716V36ZM160.406 30.786L160.428 31.49C160.399 31.6807 160.333 31.9667 160.23 32.348C160.142 32.7293 159.988 33.1473 159.768 33.602C159.563 34.042 159.284 34.4673 158.932 34.878C158.595 35.274 158.17 35.604 157.656 35.868C157.143 36.1173 156.52 36.242 155.786 36.242C155.258 36.242 154.723 36.1687 154.18 36.022C153.652 35.89 153.168 35.6627 152.728 35.34C152.303 35.0173 151.958 34.5773 151.694 34.02C151.43 33.4627 151.298 32.7587 151.298 31.908V25.044H153.74V31.446C153.74 32.1353 153.85 32.678 154.07 33.074C154.305 33.4553 154.628 33.7267 155.038 33.888C155.449 34.0493 155.926 34.13 156.468 34.13C157.246 34.13 157.906 33.954 158.448 33.602C158.991 33.25 159.424 32.8173 159.746 32.304C160.084 31.776 160.304 31.27 160.406 30.786ZM164.908 25.044H167.35V36H164.908V25.044ZM171.97 24.802C172.6 24.802 173.18 24.89 173.708 25.066C174.25 25.242 174.712 25.5133 175.094 25.88C175.49 26.232 175.79 26.672 175.996 27.2C176.216 27.728 176.326 28.3513 176.326 29.07V36H173.884V29.554C173.884 28.6593 173.664 27.9993 173.224 27.574C172.798 27.134 172.124 26.914 171.2 26.914C170.496 26.914 169.85 27.068 169.264 27.376C168.692 27.6693 168.222 28.058 167.856 28.542C167.489 29.0113 167.276 29.532 167.218 30.104L167.196 28.916C167.269 28.3733 167.43 27.86 167.68 27.376C167.929 26.8773 168.259 26.4373 168.67 26.056C169.08 25.66 169.564 25.352 170.122 25.132C170.679 24.912 171.295 24.802 171.97 24.802ZM187.965 36.242C186.953 36.242 186.029 36 185.193 35.516C184.372 35.032 183.719 34.3647 183.235 33.514C182.751 32.6487 182.509 31.6587 182.509 30.544C182.509 29.4 182.744 28.4027 183.213 27.552C183.697 26.6867 184.343 26.012 185.149 25.528C185.971 25.044 186.909 24.802 187.965 24.802C188.889 24.802 189.667 24.956 190.297 25.264C190.928 25.5573 191.427 25.968 191.793 26.496C192.16 27.0093 192.424 27.6107 192.585 28.3C192.761 28.9893 192.849 29.7373 192.849 30.544C192.849 31.1453 192.761 31.7833 192.585 32.458C192.409 33.118 192.131 33.734 191.749 34.306C191.383 34.878 190.884 35.3473 190.253 35.714C189.637 36.066 188.875 36.242 187.965 36.242ZM188.713 34.218C189.535 34.218 190.231 34.064 190.803 33.756C191.39 33.4333 191.83 32.9933 192.123 32.436C192.431 31.8787 192.585 31.248 192.585 30.544C192.585 29.7667 192.431 29.1067 192.123 28.564C191.815 28.0067 191.375 27.574 190.803 27.266C190.231 26.958 189.535 26.804 188.713 26.804C187.54 26.804 186.631 27.156 185.985 27.86C185.34 28.5493 185.017 29.444 185.017 30.544C185.017 31.2627 185.171 31.9007 185.479 32.458C185.802 33.0153 186.242 33.448 186.799 33.756C187.357 34.064 187.995 34.218 188.713 34.218ZM192.585 20.644H195.049V36H192.761C192.732 35.6627 192.695 35.2447 192.651 34.746C192.607 34.2473 192.585 33.8 192.585 33.404V20.644ZM206.809 32.392H209.163C209.046 33.14 208.753 33.8073 208.283 34.394C207.829 34.966 207.205 35.4207 206.413 35.758C205.621 36.0807 204.675 36.242 203.575 36.242C202.329 36.242 201.214 36.0147 200.231 35.56C199.249 35.0907 198.479 34.4307 197.921 33.58C197.364 32.7293 197.085 31.7173 197.085 30.544C197.085 29.3853 197.357 28.3733 197.899 27.508C198.442 26.6427 199.19 25.9753 200.143 25.506C201.111 25.0367 202.226 24.802 203.487 24.802C204.793 24.802 205.878 25.0367 206.743 25.506C207.623 25.9607 208.276 26.65 208.701 27.574C209.127 28.4833 209.303 29.6347 209.229 31.028H199.571C199.645 31.644 199.843 32.2013 200.165 32.7C200.503 33.184 200.957 33.5653 201.529 33.844C202.101 34.108 202.769 34.24 203.531 34.24C204.382 34.24 205.093 34.0713 205.665 33.734C206.252 33.3967 206.633 32.9493 206.809 32.392ZM203.421 26.782C202.424 26.782 201.603 27.0313 200.957 27.53C200.312 28.014 199.894 28.6373 199.703 29.4H206.765C206.707 28.5787 206.377 27.9407 205.775 27.486C205.174 27.0167 204.389 26.782 203.421 26.782ZM215.883 34.262H215.025L218.809 25.044H221.471L216.631 36H214.299L209.525 25.044H212.209L215.883 34.262ZM225.587 20.402V22.756H222.661V20.402H225.587ZM222.881 25.044H225.345V36H222.881V25.044ZM227.28 32.392H229.546C229.664 32.9493 229.964 33.404 230.448 33.756C230.932 34.0933 231.585 34.262 232.406 34.262C232.934 34.262 233.345 34.2033 233.638 34.086C233.946 33.9687 234.159 33.8073 234.276 33.602C234.408 33.3967 234.474 33.162 234.474 32.898C234.474 32.5753 234.379 32.326 234.188 32.15C234.012 31.974 233.748 31.8273 233.396 31.71C233.044 31.5927 232.604 31.49 232.076 31.402C231.534 31.27 230.998 31.1233 230.47 30.962C229.942 30.8007 229.466 30.6027 229.04 30.368C228.615 30.1187 228.278 29.8107 228.028 29.444C227.794 29.0627 227.676 28.6007 227.676 28.058C227.676 27.5593 227.786 27.112 228.006 26.716C228.241 26.3053 228.564 25.9607 228.974 25.682C229.385 25.4033 229.869 25.1907 230.426 25.044C230.984 24.8827 231.592 24.802 232.252 24.802C233.206 24.802 233.998 24.956 234.628 25.264C235.274 25.572 235.758 26.0047 236.08 26.562C236.418 27.1193 236.586 27.7573 236.586 28.476H234.43C234.313 27.8893 234.086 27.464 233.748 27.2C233.411 26.936 232.905 26.804 232.23 26.804C231.556 26.804 231.042 26.9213 230.69 27.156C230.338 27.3907 230.162 27.7133 230.162 28.124C230.162 28.432 230.272 28.6813 230.492 28.872C230.727 29.048 231.057 29.202 231.482 29.334C231.908 29.466 232.406 29.598 232.978 29.73C233.506 29.8767 234.005 30.0307 234.474 30.192C234.944 30.3387 235.362 30.5293 235.728 30.764C236.11 30.984 236.41 31.2773 236.63 31.644C236.85 32.0107 236.96 32.4653 236.96 33.008C236.96 33.6827 236.777 34.262 236.41 34.746C236.058 35.23 235.545 35.604 234.87 35.868C234.196 36.1173 233.382 36.242 232.428 36.242C231.592 36.242 230.866 36.1467 230.25 35.956C229.649 35.7653 229.143 35.516 228.732 35.208C228.336 34.9 228.028 34.57 227.808 34.218C227.588 33.866 227.434 33.5287 227.346 33.206C227.273 32.8833 227.251 32.612 227.28 32.392Z" fill="white"/>
</svg>
