<?xml version="1.0" encoding="UTF-8"?>
<svg version="1.1" viewBox="0 0 2048 473" width="467" height="108" xmlns="http://www.w3.org/2000/svg">
<path transform="translate(0,51)" d="m0 0h160l27 2 25 4 24 7 24 10 16 9 16 12 12 11 11 11 10 13 10 15 11 23 7 21 5 21 3 22 1 14v28l-4 33-6 25-9 25-10 21-8 12-12 16-9 10-12 12-14 11-15 10-19 9-21 7-26 6-9 2h-57l-1-10v-112l1-2 38-1 21-2 17-5 11-6 9-7 6-8 6-12 5-18 2-16v-29l-3-17-6-16-7-11-7-8-14-9-14-6-16-4-17-2-50-1v298l-1 4h-111z" fill="#253C5B"/>
<path transform="translate(1047,48)" d="m0 0h103l1 3 1 265 2 13 5 13 6 9 9 6 11 3h12l11-4 11-8 7-11 3-9 1-7v-9l-2-11-7-14-8-8-11-5-34-1-1-9v-108h42l18 3 18 6 19 10 13 10 12 11 11 12 14 21 9 17 8 24 4 24v42l-5 25-7 20-12 23-8 12-9 12-11 12-17 12-16 8-27 9-18 4h-31l-28-7-15-6-15-8-12-9-10-9-8-8-11-15-10-18-7-17-6-20-3-18-2-24z" fill="#253C5B"/>
<path transform="translate(1498,159)" d="m0 0h25l24 3 21 6 16 8 12 8 12 11 12 12 10 14 8 16 6 15 5 19 3 17 1 10 1 22v153h-103l-1-153-2-12-5-12-6-9-7-6-7-3-6-1h-12l-10 3-9 6-8 11-4 8-2 8v16l4 13 6 10 10 8 13 4h29v109h-44l-32-8-19-8-16-10-13-12-12-14-9-13-9-17-8-24-4-20-1-8v-41l4-24 6-20 6-14 10-16 10-14 12-13 11-10 16-11 16-8 15-5 15-3z" fill="#253C5B"/>
<path transform="translate(534,153)" d="m0 0 21 1 20 4 19 7 16 9 14 11 18 18 14 19 10 18 7 19 5 21 2 14 1 14v10l-2 21-4 21-7 21-10 19-11 16-9 10-7 8-10 9-13 9-12 7-15 6-21 6-9 2h-30l-27-7-19-8-16-9-10-8-21-21-9-12-9-15-7-15-7-21-4-19-2-20v-13l3-24 5-21 6-16 8-16 9-14 9-11 11-12 8-7 12-9 18-10 17-6 18-4zm-7 114-10 4-12 11-6 10-3 11v21l4 11 6 10 9 8 10 5 4 1h13l13-5 10-9 7-11 3-9 1-6v-13l-3-12-7-13-7-7-12-6-4-1z" fill="#253C5B"/>
<path transform="translate(725,51)" d="m0 0h102v422h-103v-421z" fill="#253C5B"/>
<path transform="translate(1820,159)" d="m0 0h45l1 12v105l-1 1-23 1-7 2-8 7-5 10-3 12-1 143-1 21h-102l-1-8v-166l2-25 5-25 8-22 10-19 9-11 9-10 9-8 14-9 15-6 17-4z" fill="#253C5B"/>
<path transform="translate(2021,158)" d="m0 0h27v119l-24 1-8 3-8 7-5 10-2 11-1 13-1 151h-103v-180l3-28 5-20 6-16 8-16 9-13 9-10 9-9 15-10 13-6 14-4 13-2z" fill="#253C5B"/>
<path transform="translate(889,160)" d="m0 0h101l1 1v312h-102l-1-10v-302z" fill="#253C5B"/>
<path transform="translate(931,16)" d="m0 0h18l12 4 11 6 8 8 8 13 4 12 1 5v15l-4 14-7 12-9 10-11 7-13 4h-20l-11-4-10-6-6-5-9-13-5-12-1-5v-20l4-13 7-12 10-10 10-6z" fill="#00717F"/>
<path transform="translate(1971,5)" d="m0 0h8l3 3 12 40 11 39 4-11 10-33 9-29 2-8 13-1 1 1v102h-8l-1-1-1-81-16 54-9 27-4 2-4-5-9-28-14-46-2-5-1 82-1 1h-6l-1-1-1-99 1-2zm3 14 1 3z" fill="#00717F"/>
<path transform="translate(1605,5)" d="m0 0h39l9 2 9 6 4 6 2 6v21l-4 8-7 7-7 2 8 16 14 27-1 2h-9l-5-5-18-37-25-2v43l-1 1h-9l-1-15v-86zm9 11v38h29l9-3 5-6 1-3v-14l-3-6-4-4-8-2z" fill="#00717F"/>
<path transform="translate(1884,5)" d="m0 0h39l9 2 8 6 5 6 3 9v13l-3 9-4 6-6 5-6 2 21 42v3h-9l-5-6-18-36-25-2v42l-1 2h-8l-2-1v-101zm9 11v38h30l8-3 5-6 2-7v-7l-3-8-7-6-4-1z" fill="#00717F"/>
<path transform="translate(1527,5)" d="m0 0h59v11h-50v34h47v10l-47 1-1 35h53v11h-63v-101z" fill="#00717F"/>
<path transform="translate(1690,5)" d="m0 0h34l9 2 9 6 6 10 2 11-1 12-4 9-7 8-6 3-4 1h-30v40l-2 1h-7l-1-1-1-100zm8 11v40l1 1h25l7-2 6-7 2-9-1-12-4-7-9-4z" fill="#00717F"/>
<path transform="translate(1829,4)" d="m0 0h8l10 2 9 5 7 8 4 7-1 4-5 2-4-1-8-10-6-4-7-2-10 1-8 4-6 8-4 9-2 13v14l2 11 6 12 5 5 4 3 6 2h10l10-5 6-7 4-8 6 2 2 1v6l-7 10-9 8-9 4-5 1h-8l-9-2-9-5-7-7-7-14-2-8-1-21 2-16 4-12 8-11 9-6z" fill="#00717F"/>
<path transform="translate(1779)" d="m0 0h9l-8 41-12 54-3 12-1 2-6 1-1-1 1-10 13-64z" fill="#00717F"/>
<path transform="translate(0,470)" d="m0 0 94 2v1h-94z" fill="#00717F"/>
</svg>
