<svg width="41" height="41" viewBox="0 0 41 41" fill="none" xmlns="http://www.w3.org/2000/svg">
<g clip-path="url(#clip0_16_38)">
<path d="M41 20.6256C41 9.23269 31.8211 -0.00256348 20.5 -0.00256348C9.17375 -9.76492e-07 -0.00512695 9.23269 -0.00512695 20.6281C-0.00512695 30.9217 7.49275 39.4548 17.2917 41.0026V26.5885H12.0899V20.6281H17.2969V16.0797C17.2969 10.9111 20.3591 8.0565 25.0407 8.0565C27.2855 8.0565 29.6302 8.45881 29.6302 8.45881V13.5326H27.0446C24.5001 13.5326 23.7057 15.1239 23.7057 16.7562V20.6256H29.3893L28.4822 26.5859H23.7031V41C33.5021 39.4522 41 30.9191 41 20.6256Z" fill="black"/>
</g>
<defs>
<clipPath id="clip0_16_38">
<rect width="41" height="41" fill="white"/>
</clipPath>
</defs>
</svg>
