<svg width="1510" height="418" viewBox="0 0 1510 418" fill="none" xmlns="http://www.w3.org/2000/svg">
<line x1="256.094" y1="136.752" x2="521.094" y2="265.752" stroke="url(#paint0_linear_489_94)" stroke-width="5"/>
<line x1="1057.09" y1="165.752" x2="1322.09" y2="294.752" stroke="url(#paint1_linear_489_94)" stroke-width="5"/>
<line x1="649.515" y1="312.062" x2="886.613" y2="136.989" stroke="url(#paint2_linear_489_94)" stroke-width="5"/>
<g clip-path="url(#clip0_489_94)">
<path d="M160.75 222L74 111L160.75 0H334.25L421 111L334.25 222H160.75Z" fill="url(#paint3_linear_489_94)"/>
<path d="M129.065 115.878H127.994L134.318 106.001H136.579V117H134.318V109.01L134.862 109.163L129.813 117H127.28L122.231 109.197L122.775 109.044V117H120.514V106.001H122.775L129.065 115.878ZM142.625 117.187C141.786 117.187 141.021 117.006 140.33 116.643C139.65 116.269 139.106 115.753 138.698 115.096C138.301 114.427 138.103 113.657 138.103 112.784C138.103 111.889 138.307 111.112 138.715 110.455C139.123 109.798 139.672 109.288 140.364 108.925C141.066 108.551 141.86 108.364 142.744 108.364C143.718 108.364 144.5 108.562 145.09 108.959C145.69 109.344 146.127 109.871 146.399 110.54C146.671 111.209 146.807 111.957 146.807 112.784C146.807 113.283 146.727 113.793 146.569 114.314C146.41 114.824 146.166 115.3 145.838 115.742C145.509 116.173 145.078 116.524 144.546 116.796C144.013 117.057 143.373 117.187 142.625 117.187ZM143.339 115.487C144.007 115.487 144.585 115.374 145.073 115.147C145.56 114.92 145.934 114.603 146.195 114.195C146.455 113.787 146.586 113.317 146.586 112.784C146.586 112.206 146.45 111.719 146.178 111.322C145.917 110.914 145.543 110.608 145.056 110.404C144.58 110.189 144.007 110.081 143.339 110.081C142.398 110.081 141.667 110.33 141.146 110.829C140.624 111.316 140.364 111.968 140.364 112.784C140.364 113.328 140.488 113.804 140.738 114.212C140.987 114.609 141.333 114.92 141.775 115.147C142.228 115.374 142.749 115.487 143.339 115.487ZM146.586 108.551H148.796V117H146.739C146.739 117 146.722 116.892 146.688 116.677C146.665 116.45 146.642 116.167 146.62 115.827C146.597 115.487 146.586 115.153 146.586 114.824V108.551ZM150.405 108.551H152.615V117H150.405V108.551ZM156.542 108.364C157.063 108.364 157.545 108.432 157.987 108.568C158.429 108.704 158.814 108.914 159.143 109.197C159.472 109.48 159.727 109.843 159.908 110.285C160.089 110.716 160.18 111.231 160.18 111.832V117H157.97V112.223C157.97 111.509 157.794 110.988 157.443 110.659C157.103 110.319 156.542 110.149 155.76 110.149C155.171 110.149 154.638 110.262 154.162 110.489C153.686 110.716 153.301 111.005 153.006 111.356C152.711 111.696 152.541 112.053 152.496 112.427L152.479 111.56C152.536 111.163 152.666 110.778 152.87 110.404C153.074 110.03 153.346 109.69 153.686 109.384C154.037 109.067 154.451 108.817 154.927 108.636C155.403 108.455 155.941 108.364 156.542 108.364ZM165.915 117.187C165.076 117.187 164.311 117.006 163.62 116.643C162.94 116.269 162.396 115.753 161.988 115.096C161.591 114.427 161.393 113.657 161.393 112.784C161.393 111.889 161.597 111.112 162.005 110.455C162.413 109.798 162.963 109.288 163.654 108.925C164.357 108.551 165.15 108.364 166.034 108.364C167.009 108.364 167.791 108.562 168.38 108.959C168.981 109.344 169.417 109.871 169.689 110.54C169.961 111.209 170.097 111.957 170.097 112.784C170.097 113.283 170.018 113.793 169.859 114.314C169.7 114.824 169.457 115.3 169.128 115.742C168.799 116.173 168.369 116.524 167.836 116.796C167.303 117.057 166.663 117.187 165.915 117.187ZM166.629 115.487C167.298 115.487 167.876 115.374 168.363 115.147C168.85 114.92 169.224 114.603 169.485 114.195C169.746 113.787 169.876 113.317 169.876 112.784C169.876 112.206 169.74 111.719 169.468 111.322C169.207 110.914 168.833 110.608 168.346 110.404C167.87 110.189 167.298 110.081 166.629 110.081C165.688 110.081 164.957 110.33 164.436 110.829C163.915 111.316 163.654 111.968 163.654 112.784C163.654 113.328 163.779 113.804 164.028 114.212C164.277 114.609 164.623 114.92 165.065 115.147C165.518 115.374 166.04 115.487 166.629 115.487ZM169.876 108.551H172.086V117H170.029C170.029 117 170.012 116.892 169.978 116.677C169.955 116.45 169.933 116.167 169.91 115.827C169.887 115.487 169.876 115.153 169.876 114.824V108.551ZM177.911 115.708C176.993 115.708 176.183 115.572 175.48 115.3C174.789 115.017 174.251 114.603 173.865 114.059C173.48 113.515 173.287 112.858 173.287 112.087C173.287 111.328 173.474 110.67 173.848 110.115C174.222 109.56 174.755 109.129 175.446 108.823C176.149 108.517 176.971 108.364 177.911 108.364C178.172 108.364 178.421 108.381 178.659 108.415C178.909 108.449 179.152 108.494 179.39 108.551L183.657 108.568V110.234C183.079 110.245 182.49 110.177 181.889 110.03C181.3 109.871 180.779 109.701 180.325 109.52L180.274 109.401C180.66 109.582 181.022 109.809 181.362 110.081C181.702 110.342 181.974 110.648 182.178 110.999C182.394 111.339 182.501 111.736 182.501 112.189C182.501 112.926 182.314 113.56 181.94 114.093C181.566 114.614 181.034 115.017 180.342 115.3C179.662 115.572 178.852 115.708 177.911 115.708ZM180.75 120.485V120.077C180.75 119.556 180.58 119.193 180.24 118.989C179.912 118.785 179.458 118.683 178.88 118.683H176.245C175.735 118.683 175.305 118.643 174.953 118.564C174.613 118.485 174.341 118.371 174.137 118.224C173.933 118.077 173.786 117.901 173.695 117.697C173.605 117.504 173.559 117.295 173.559 117.068C173.559 116.615 173.707 116.275 174.001 116.048C174.296 115.81 174.693 115.651 175.191 115.572C175.69 115.493 176.24 115.476 176.84 115.521L177.911 115.708C177.197 115.731 176.665 115.793 176.313 115.895C175.973 115.986 175.803 116.173 175.803 116.456C175.803 116.626 175.871 116.762 176.007 116.864C176.143 116.955 176.336 117 176.585 117H179.356C180.116 117 180.762 117.079 181.294 117.238C181.838 117.408 182.252 117.686 182.535 118.071C182.819 118.468 182.96 119.006 182.96 119.686V120.485H180.75ZM177.911 114.11C178.399 114.11 178.824 114.031 179.186 113.872C179.56 113.713 179.849 113.487 180.053 113.192C180.257 112.886 180.359 112.523 180.359 112.104C180.359 111.673 180.257 111.305 180.053 110.999C179.849 110.693 179.566 110.461 179.203 110.302C178.841 110.132 178.41 110.047 177.911 110.047C177.424 110.047 176.993 110.132 176.619 110.302C176.245 110.461 175.956 110.693 175.752 110.999C175.548 111.305 175.446 111.673 175.446 112.104C175.446 112.523 175.548 112.886 175.752 113.192C175.956 113.487 176.24 113.713 176.602 113.872C176.976 114.031 177.413 114.11 177.911 114.11ZM192.261 114.195H194.403C194.312 114.773 194.069 115.289 193.672 115.742C193.287 116.195 192.76 116.552 192.091 116.813C191.422 117.074 190.606 117.204 189.643 117.204C188.566 117.204 187.614 117.034 186.787 116.694C185.96 116.343 185.314 115.838 184.849 115.181C184.384 114.524 184.152 113.73 184.152 112.801C184.152 111.872 184.379 111.078 184.832 110.421C185.285 109.752 185.914 109.242 186.719 108.891C187.535 108.54 188.487 108.364 189.575 108.364C190.686 108.364 191.609 108.54 192.346 108.891C193.083 109.242 193.627 109.775 193.978 110.489C194.341 111.192 194.494 112.093 194.437 113.192H186.379C186.436 113.623 186.594 114.014 186.855 114.365C187.127 114.716 187.49 114.994 187.943 115.198C188.408 115.402 188.957 115.504 189.592 115.504C190.295 115.504 190.878 115.385 191.343 115.147C191.819 114.898 192.125 114.58 192.261 114.195ZM189.473 110.047C188.657 110.047 187.994 110.228 187.484 110.591C186.974 110.942 186.645 111.379 186.498 111.9H192.244C192.187 111.333 191.915 110.886 191.428 110.557C190.952 110.217 190.3 110.047 189.473 110.047ZM195.691 108.551H197.901V117H195.691V108.551ZM201.828 108.364C202.349 108.364 202.831 108.432 203.273 108.568C203.715 108.704 204.1 108.914 204.429 109.197C204.757 109.48 205.012 109.843 205.194 110.285C205.375 110.716 205.466 111.231 205.466 111.832V117H203.256V112.223C203.256 111.509 203.08 110.988 202.729 110.659C202.389 110.319 201.828 110.149 201.046 110.149C200.456 110.149 199.924 110.262 199.448 110.489C198.972 110.716 198.586 111.005 198.292 111.356C197.997 111.696 197.827 112.053 197.782 112.427L197.765 111.56C197.821 111.163 197.952 110.778 198.156 110.404C198.36 110.03 198.632 109.69 198.972 109.384C199.323 109.067 199.737 108.817 200.213 108.636C200.689 108.455 201.227 108.364 201.828 108.364ZM209.189 108.364C209.71 108.364 210.192 108.432 210.634 108.568C211.076 108.704 211.461 108.914 211.79 109.197C212.118 109.48 212.373 109.843 212.555 110.285C212.747 110.716 212.844 111.231 212.844 111.832V117H210.634V112.223C210.634 111.509 210.458 110.988 210.107 110.659C209.755 110.319 209.189 110.149 208.407 110.149C207.817 110.149 207.285 110.262 206.809 110.489C206.333 110.716 205.947 111.005 205.653 111.356C205.358 111.696 205.194 112.053 205.16 112.427L205.126 111.509C205.182 111.135 205.318 110.761 205.534 110.387C205.749 110.013 206.032 109.673 206.384 109.367C206.735 109.061 207.143 108.817 207.608 108.636C208.084 108.455 208.611 108.364 209.189 108.364ZM222.159 114.195H224.301C224.21 114.773 223.966 115.289 223.57 115.742C223.184 116.195 222.657 116.552 221.989 116.813C221.32 117.074 220.504 117.204 219.541 117.204C218.464 117.204 217.512 117.034 216.685 116.694C215.857 116.343 215.211 115.838 214.747 115.181C214.282 114.524 214.05 113.73 214.05 112.801C214.05 111.872 214.276 111.078 214.73 110.421C215.183 109.752 215.812 109.242 216.617 108.891C217.433 108.54 218.385 108.364 219.473 108.364C220.583 108.364 221.507 108.54 222.244 108.891C222.98 109.242 223.524 109.775 223.876 110.489C224.238 111.192 224.391 112.093 224.335 113.192H216.277C216.333 113.623 216.492 114.014 216.753 114.365C217.025 114.716 217.387 114.994 217.841 115.198C218.305 115.402 218.855 115.504 219.49 115.504C220.192 115.504 220.776 115.385 221.241 115.147C221.717 114.898 222.023 114.58 222.159 114.195ZM219.371 110.047C218.555 110.047 217.892 110.228 217.382 110.591C216.872 110.942 216.543 111.379 216.396 111.9H222.142C222.085 111.333 221.813 110.886 221.326 110.557C220.85 110.217 220.198 110.047 219.371 110.047ZM225.588 108.551H227.798V117H225.588V108.551ZM231.725 108.364C232.247 108.364 232.728 108.432 233.17 108.568C233.612 108.704 233.998 108.914 234.326 109.197C234.655 109.48 234.91 109.843 235.091 110.285C235.273 110.716 235.363 111.231 235.363 111.832V117H233.153V112.223C233.153 111.509 232.978 110.988 232.626 110.659C232.286 110.319 231.725 110.149 230.943 110.149C230.354 110.149 229.821 110.262 229.345 110.489C228.869 110.716 228.484 111.005 228.189 111.356C227.895 111.696 227.725 112.053 227.679 112.427L227.662 111.56C227.719 111.163 227.849 110.778 228.053 110.404C228.257 110.03 228.529 109.69 228.869 109.384C229.221 109.067 229.634 108.817 230.11 108.636C230.586 108.455 231.125 108.364 231.725 108.364ZM236.389 108.551H242.951V110.268H236.389V108.551ZM238.565 106.239H240.775V117H238.565V106.239ZM251.788 117.187C250.938 117.187 250.167 117.006 249.476 116.643C248.796 116.269 248.258 115.753 247.861 115.096C247.464 114.427 247.266 113.657 247.266 112.784C247.266 111.889 247.459 111.112 247.844 110.455C248.241 109.798 248.779 109.288 249.459 108.925C250.139 108.551 250.915 108.364 251.788 108.364C252.547 108.364 253.193 108.477 253.726 108.704C254.259 108.931 254.689 109.248 255.018 109.656C255.347 110.053 255.585 110.517 255.732 111.05C255.891 111.583 255.97 112.161 255.97 112.784C255.97 113.283 255.891 113.793 255.732 114.314C255.573 114.824 255.33 115.3 255.001 115.742C254.672 116.173 254.242 116.524 253.709 116.796C253.176 117.057 252.536 117.187 251.788 117.187ZM252.502 115.487C253.171 115.487 253.749 115.374 254.236 115.147C254.723 114.92 255.097 114.603 255.358 114.195C255.619 113.787 255.749 113.317 255.749 112.784C255.749 112.206 255.613 111.719 255.341 111.322C255.08 110.914 254.706 110.602 254.219 110.387C253.743 110.172 253.171 110.064 252.502 110.064C251.561 110.064 250.83 110.313 250.309 110.812C249.788 111.311 249.527 111.968 249.527 112.784C249.527 113.328 249.652 113.804 249.901 114.212C250.15 114.609 250.496 114.92 250.938 115.147C251.391 115.374 251.913 115.487 252.502 115.487ZM255.749 105.151H257.959V117H255.902C255.868 116.739 255.834 116.405 255.8 115.997C255.766 115.578 255.749 115.187 255.749 114.824V105.151ZM269.725 117H267.515V108.551H269.725V117ZM267.634 112.937L267.651 113.515C267.628 113.674 267.572 113.906 267.481 114.212C267.39 114.507 267.249 114.824 267.056 115.164C266.875 115.504 266.637 115.833 266.342 116.15C266.047 116.456 265.685 116.711 265.254 116.915C264.823 117.108 264.313 117.204 263.724 117.204C263.259 117.204 262.8 117.147 262.347 117.034C261.905 116.921 261.503 116.734 261.14 116.473C260.777 116.201 260.488 115.838 260.273 115.385C260.058 114.932 259.95 114.359 259.95 113.668V108.551H262.16V113.294C262.16 113.838 262.245 114.269 262.415 114.586C262.596 114.892 262.857 115.107 263.197 115.232C263.537 115.357 263.939 115.419 264.404 115.419C265.016 115.419 265.543 115.289 265.985 115.028C266.427 114.756 266.784 114.427 267.056 114.042C267.339 113.657 267.532 113.288 267.634 112.937ZM285.086 113.668C285.029 114.405 284.791 115.039 284.372 115.572C283.964 116.105 283.397 116.513 282.672 116.796C281.946 117.068 281.085 117.204 280.088 117.204C279.045 117.204 278.11 117.04 277.283 116.711C276.467 116.371 275.821 115.878 275.345 115.232C274.88 114.575 274.648 113.764 274.648 112.801C274.648 111.838 274.88 111.027 275.345 110.37C275.821 109.713 276.467 109.214 277.283 108.874C278.11 108.534 279.045 108.364 280.088 108.364C281.085 108.364 281.941 108.506 282.655 108.789C283.369 109.061 283.93 109.458 284.338 109.979C284.757 110.5 285.001 111.129 285.069 111.866H283.046C282.853 111.299 282.496 110.857 281.975 110.54C281.453 110.223 280.824 110.064 280.088 110.064C279.498 110.064 278.96 110.166 278.473 110.37C277.997 110.574 277.611 110.88 277.317 111.288C277.033 111.685 276.892 112.189 276.892 112.801C276.892 113.402 277.033 113.906 277.317 114.314C277.6 114.711 277.985 115.011 278.473 115.215C278.96 115.408 279.498 115.504 280.088 115.504C280.881 115.504 281.527 115.345 282.026 115.028C282.536 114.711 282.881 114.257 283.063 113.668H285.086ZM294.037 117V112.359C294.037 111.894 293.958 111.509 293.799 111.203C293.64 110.897 293.385 110.665 293.034 110.506C292.694 110.347 292.235 110.268 291.657 110.268C291.102 110.268 290.597 110.376 290.144 110.591C289.691 110.795 289.322 111.067 289.039 111.407C288.756 111.736 288.597 112.087 288.563 112.461L288.546 111.526C288.603 111.152 288.733 110.778 288.937 110.404C289.141 110.03 289.413 109.69 289.753 109.384C290.093 109.078 290.501 108.834 290.977 108.653C291.464 108.46 292.008 108.364 292.609 108.364C293.13 108.364 293.612 108.432 294.054 108.568C294.496 108.693 294.881 108.891 295.21 109.163C295.539 109.435 295.794 109.775 295.975 110.183C296.156 110.58 296.247 111.05 296.247 111.594V117H294.037ZM286.472 117V105.151H288.682V117H286.472ZM301.979 117.187C301.14 117.187 300.375 117.006 299.684 116.643C299.004 116.269 298.46 115.753 298.052 115.096C297.655 114.427 297.457 113.657 297.457 112.784C297.457 111.889 297.661 111.112 298.069 110.455C298.477 109.798 299.026 109.288 299.718 108.925C300.42 108.551 301.214 108.364 302.098 108.364C303.072 108.364 303.854 108.562 304.444 108.959C305.044 109.344 305.481 109.871 305.753 110.54C306.025 111.209 306.161 111.957 306.161 112.784C306.161 113.283 306.081 113.793 305.923 114.314C305.764 114.824 305.52 115.3 305.192 115.742C304.863 116.173 304.432 116.524 303.9 116.796C303.367 117.057 302.727 117.187 301.979 117.187ZM302.693 115.487C303.361 115.487 303.939 115.374 304.427 115.147C304.914 114.92 305.288 114.603 305.549 114.195C305.809 113.787 305.94 113.317 305.94 112.784C305.94 112.206 305.804 111.719 305.532 111.322C305.271 110.914 304.897 110.608 304.41 110.404C303.934 110.189 303.361 110.081 302.693 110.081C301.752 110.081 301.021 110.33 300.5 110.829C299.978 111.316 299.718 111.968 299.718 112.784C299.718 113.328 299.842 113.804 300.092 114.212C300.341 114.609 300.687 114.92 301.129 115.147C301.582 115.374 302.103 115.487 302.693 115.487ZM305.94 108.551H308.15V117H306.093C306.093 117 306.076 116.892 306.042 116.677C306.019 116.45 305.996 116.167 305.974 115.827C305.951 115.487 305.94 115.153 305.94 114.824V108.551ZM309.759 108.551H311.969V117H309.759V108.551ZM315.896 108.364C316.417 108.364 316.899 108.432 317.341 108.568C317.783 108.704 318.168 108.914 318.497 109.197C318.825 109.48 319.08 109.843 319.262 110.285C319.443 110.716 319.534 111.231 319.534 111.832V117H317.324V112.223C317.324 111.509 317.148 110.988 316.797 110.659C316.457 110.319 315.896 110.149 315.114 110.149C314.524 110.149 313.992 110.262 313.516 110.489C313.04 110.716 312.654 111.005 312.36 111.356C312.065 111.696 311.895 112.053 311.85 112.427L311.833 111.56C311.889 111.163 312.02 110.778 312.224 110.404C312.428 110.03 312.7 109.69 313.04 109.384C313.391 109.067 313.805 108.817 314.281 108.636C314.757 108.455 315.295 108.364 315.896 108.364ZM325.371 115.708C324.453 115.708 323.642 115.572 322.94 115.3C322.248 115.017 321.71 114.603 321.325 114.059C320.939 113.515 320.747 112.858 320.747 112.087C320.747 111.328 320.934 110.67 321.308 110.115C321.682 109.56 322.214 109.129 322.906 108.823C323.608 108.517 324.43 108.364 325.371 108.364C325.631 108.364 325.881 108.381 326.119 108.415C326.368 108.449 326.612 108.494 326.85 108.551L331.117 108.568V110.234C330.539 110.245 329.949 110.177 329.349 110.03C328.759 109.871 328.238 109.701 327.785 109.52L327.734 109.401C328.119 109.582 328.482 109.809 328.822 110.081C329.162 110.342 329.434 110.648 329.638 110.999C329.853 111.339 329.961 111.736 329.961 112.189C329.961 112.926 329.774 113.56 329.4 114.093C329.026 114.614 328.493 115.017 327.802 115.3C327.122 115.572 326.311 115.708 325.371 115.708ZM328.21 120.485V120.077C328.21 119.556 328.04 119.193 327.7 118.989C327.371 118.785 326.918 118.683 326.34 118.683H323.705C323.195 118.683 322.764 118.643 322.413 118.564C322.073 118.485 321.801 118.371 321.597 118.224C321.393 118.077 321.245 117.901 321.155 117.697C321.064 117.504 321.019 117.295 321.019 117.068C321.019 116.615 321.166 116.275 321.461 116.048C321.755 115.81 322.152 115.651 322.651 115.572C323.149 115.493 323.699 115.476 324.3 115.521L325.371 115.708C324.657 115.731 324.124 115.793 323.773 115.895C323.433 115.986 323.263 116.173 323.263 116.456C323.263 116.626 323.331 116.762 323.467 116.864C323.603 116.955 323.795 117 324.045 117H326.816C327.575 117 328.221 117.079 328.754 117.238C329.298 117.408 329.711 117.686 329.995 118.071C330.278 118.468 330.42 119.006 330.42 119.686V120.485H328.21ZM325.371 114.11C325.858 114.11 326.283 114.031 326.646 113.872C327.02 113.713 327.309 113.487 327.513 113.192C327.717 112.886 327.819 112.523 327.819 112.104C327.819 111.673 327.717 111.305 327.513 110.999C327.309 110.693 327.025 110.461 326.663 110.302C326.3 110.132 325.869 110.047 325.371 110.047C324.883 110.047 324.453 110.132 324.079 110.302C323.705 110.461 323.416 110.693 323.212 110.999C323.008 111.305 322.906 111.673 322.906 112.104C322.906 112.523 323.008 112.886 323.212 113.192C323.416 113.487 323.699 113.713 324.062 113.872C324.436 114.031 324.872 114.11 325.371 114.11ZM339.721 114.195H341.863C341.772 114.773 341.528 115.289 341.132 115.742C340.746 116.195 340.219 116.552 339.551 116.813C338.882 117.074 338.066 117.204 337.103 117.204C336.026 117.204 335.074 117.034 334.247 116.694C333.419 116.343 332.773 115.838 332.309 115.181C331.844 114.524 331.612 113.73 331.612 112.801C331.612 111.872 331.838 111.078 332.292 110.421C332.745 109.752 333.374 109.242 334.179 108.891C334.995 108.54 335.947 108.364 337.035 108.364C338.145 108.364 339.069 108.54 339.806 108.891C340.542 109.242 341.086 109.775 341.438 110.489C341.8 111.192 341.953 112.093 341.897 113.192H333.839C333.895 113.623 334.054 114.014 334.315 114.365C334.587 114.716 334.949 114.994 335.403 115.198C335.867 115.402 336.417 115.504 337.052 115.504C337.754 115.504 338.338 115.385 338.803 115.147C339.279 114.898 339.585 114.58 339.721 114.195ZM336.933 110.047C336.117 110.047 335.454 110.228 334.944 110.591C334.434 110.942 334.105 111.379 333.958 111.9H339.704C339.647 111.333 339.375 110.886 338.888 110.557C338.412 110.217 337.76 110.047 336.933 110.047ZM343.15 108.551H345.36V117H343.15V108.551ZM349.287 108.364C349.808 108.364 350.29 108.432 350.732 108.568C351.174 108.704 351.559 108.914 351.888 109.197C352.217 109.48 352.472 109.843 352.653 110.285C352.834 110.716 352.925 111.231 352.925 111.832V117H350.715V112.223C350.715 111.509 350.539 110.988 350.188 110.659C349.848 110.319 349.287 110.149 348.505 110.149C347.916 110.149 347.383 110.262 346.907 110.489C346.431 110.716 346.046 111.005 345.751 111.356C345.456 111.696 345.286 112.053 345.241 112.427L345.224 111.56C345.281 111.163 345.411 110.778 345.615 110.404C345.819 110.03 346.091 109.69 346.431 109.384C346.782 109.067 347.196 108.817 347.672 108.636C348.148 108.455 348.686 108.364 349.287 108.364ZM356.648 108.364C357.169 108.364 357.651 108.432 358.093 108.568C358.535 108.704 358.92 108.914 359.249 109.197C359.578 109.48 359.833 109.843 360.014 110.285C360.207 110.716 360.303 111.231 360.303 111.832V117H358.093V112.223C358.093 111.509 357.917 110.988 357.566 110.659C357.215 110.319 356.648 110.149 355.866 110.149C355.277 110.149 354.744 110.262 354.268 110.489C353.792 110.716 353.407 111.005 353.112 111.356C352.817 111.696 352.653 112.053 352.619 112.427L352.585 111.509C352.642 111.135 352.778 110.761 352.993 110.387C353.208 110.013 353.492 109.673 353.843 109.367C354.194 109.061 354.602 108.817 355.067 108.636C355.543 108.455 356.07 108.364 356.648 108.364ZM369.618 114.195H371.76C371.67 114.773 371.426 115.289 371.029 115.742C370.644 116.195 370.117 116.552 369.448 116.813C368.78 117.074 367.964 117.204 367 117.204C365.924 117.204 364.972 117.034 364.144 116.694C363.317 116.343 362.671 115.838 362.206 115.181C361.742 114.524 361.509 113.73 361.509 112.801C361.509 111.872 361.736 111.078 362.189 110.421C362.643 109.752 363.272 109.242 364.076 108.891C364.892 108.54 365.844 108.364 366.932 108.364C368.043 108.364 368.967 108.54 369.703 108.891C370.44 109.242 370.984 109.775 371.335 110.489C371.698 111.192 371.851 112.093 371.794 113.192H363.736C363.793 113.623 363.952 114.014 364.212 114.365C364.484 114.716 364.847 114.994 365.3 115.198C365.765 115.402 366.315 115.504 366.949 115.504C367.652 115.504 368.236 115.385 368.7 115.147C369.176 114.898 369.482 114.58 369.618 114.195ZM366.83 110.047C366.014 110.047 365.351 110.228 364.841 110.591C364.331 110.942 364.003 111.379 363.855 111.9H369.601C369.545 111.333 369.273 110.886 368.785 110.557C368.309 110.217 367.658 110.047 366.83 110.047ZM373.048 108.551H375.258V117H373.048V108.551ZM379.185 108.364C379.706 108.364 380.188 108.432 380.63 108.568C381.072 108.704 381.457 108.914 381.786 109.197C382.114 109.48 382.369 109.843 382.551 110.285C382.732 110.716 382.823 111.231 382.823 111.832V117H380.613V112.223C380.613 111.509 380.437 110.988 380.086 110.659C379.746 110.319 379.185 110.149 378.403 110.149C377.813 110.149 377.281 110.262 376.805 110.489C376.329 110.716 375.943 111.005 375.649 111.356C375.354 111.696 375.184 112.053 375.139 112.427L375.122 111.56C375.178 111.163 375.309 110.778 375.513 110.404C375.717 110.03 375.989 109.69 376.329 109.384C376.68 109.067 377.094 108.817 377.57 108.636C378.046 108.455 378.584 108.364 379.185 108.364ZM383.849 108.551H390.411V110.268H383.849V108.551ZM386.025 106.239H388.235V117H386.025V106.239Z" fill="white"/>
<path opacity="0.5" d="M278.382 52.5003L234.509 33.1847L229.369 -14.4827L268.106 -42.8276L311.983 -23.5051L317.119 24.1554L278.382 52.5003Z" fill="white" fill-opacity="0.78"/>
<path opacity="0.5" d="M215.382 269.5L171.509 250.185L166.369 202.517L205.106 174.172L248.983 193.495L254.119 241.155L215.382 269.5Z" fill="white" fill-opacity="0.21"/>
</g>
<g clip-path="url(#clip1_489_94)">
<path d="M1249.75 418L1163 307L1249.75 196H1423.25L1510 307L1423.25 418H1249.75Z" fill="url(#paint4_linear_489_94)"/>
<path d="M1287.19 309.039C1287.09 309.923 1286.78 310.677 1286.25 311.3C1285.73 311.923 1285.03 312.399 1284.13 312.728C1283.23 313.057 1282.17 313.221 1280.93 313.221C1279.9 313.221 1278.96 313.102 1278.09 312.864C1277.24 312.626 1276.51 312.269 1275.88 311.793C1275.27 311.317 1274.8 310.728 1274.46 310.025C1274.12 309.311 1273.95 308.478 1273.95 307.526C1273.95 306.574 1274.12 305.741 1274.46 305.027C1274.8 304.313 1275.27 303.718 1275.88 303.242C1276.51 302.755 1277.24 302.392 1278.09 302.154C1278.96 301.905 1279.9 301.78 1280.93 301.78C1282.17 301.78 1283.23 301.95 1284.13 302.29C1285.04 302.63 1285.75 303.117 1286.27 303.752C1286.79 304.375 1287.1 305.135 1287.19 306.03H1284.95C1284.8 305.554 1284.55 305.146 1284.2 304.806C1283.86 304.455 1283.42 304.188 1282.87 304.007C1282.33 303.826 1281.68 303.735 1280.93 303.735C1280 303.735 1279.19 303.882 1278.49 304.177C1277.78 304.46 1277.24 304.885 1276.85 305.452C1276.47 306.007 1276.28 306.699 1276.28 307.526C1276.28 308.342 1276.47 309.028 1276.85 309.583C1277.24 310.138 1277.78 310.563 1278.49 310.858C1279.19 311.141 1280 311.283 1280.93 311.283C1281.68 311.283 1282.32 311.192 1282.85 311.011C1283.4 310.83 1283.84 310.569 1284.18 310.229C1284.53 309.889 1284.79 309.492 1284.95 309.039H1287.19ZM1287.95 304.551H1290.3L1293.95 312.66L1292.05 313L1287.95 304.551ZM1298.29 304.551L1292.44 316.4H1290.14L1292.64 311.742L1295.92 304.551H1298.29ZM1305.69 313.187C1304.95 313.187 1304.3 313.057 1303.77 312.796C1303.24 312.524 1302.81 312.173 1302.48 311.742C1302.15 311.3 1301.91 310.824 1301.75 310.314C1301.59 309.793 1301.51 309.283 1301.51 308.784C1301.51 308.161 1301.58 307.583 1301.73 307.05C1301.89 306.517 1302.13 306.053 1302.46 305.656C1302.79 305.248 1303.22 304.931 1303.76 304.704C1304.29 304.477 1304.93 304.364 1305.69 304.364C1306.57 304.364 1307.34 304.551 1308.01 304.925C1308.69 305.288 1309.22 305.798 1309.6 306.455C1310 307.112 1310.2 307.889 1310.2 308.784C1310.2 309.657 1310 310.427 1309.6 311.096C1309.21 311.753 1308.67 312.269 1307.99 312.643C1307.31 313.006 1306.54 313.187 1305.69 313.187ZM1304.98 311.487C1305.58 311.487 1306.1 311.374 1306.54 311.147C1306.99 310.92 1307.33 310.609 1307.56 310.212C1307.81 309.804 1307.94 309.328 1307.94 308.784C1307.94 307.968 1307.68 307.311 1307.16 306.812C1306.65 306.313 1305.92 306.064 1304.98 306.064C1304.32 306.064 1303.75 306.172 1303.26 306.387C1302.77 306.602 1302.4 306.914 1302.12 307.322C1301.86 307.719 1301.73 308.206 1301.73 308.784C1301.73 309.317 1301.86 309.787 1302.12 310.195C1302.38 310.603 1302.76 310.92 1303.25 311.147C1303.73 311.374 1304.31 311.487 1304.98 311.487ZM1301.73 301.151V310.824C1301.73 311.187 1301.72 311.578 1301.68 311.997C1301.65 312.405 1301.61 312.739 1301.58 313H1299.52V301.151H1301.73ZM1319.14 310.195H1321.28C1321.19 310.773 1320.95 311.289 1320.55 311.742C1320.17 312.195 1319.64 312.552 1318.97 312.813C1318.3 313.074 1317.49 313.204 1316.52 313.204C1315.45 313.204 1314.5 313.034 1313.67 312.694C1312.84 312.343 1312.2 311.838 1311.73 311.181C1311.27 310.524 1311.03 309.73 1311.03 308.801C1311.03 307.872 1311.26 307.078 1311.71 306.421C1312.17 305.752 1312.8 305.242 1313.6 304.891C1314.42 304.54 1315.37 304.364 1316.46 304.364C1317.57 304.364 1318.49 304.54 1319.23 304.891C1319.96 305.242 1320.51 305.775 1320.86 306.489C1321.22 307.192 1321.38 308.093 1321.32 309.192H1313.26C1313.32 309.623 1313.48 310.014 1313.74 310.365C1314.01 310.716 1314.37 310.994 1314.82 311.198C1315.29 311.402 1315.84 311.504 1316.47 311.504C1317.18 311.504 1317.76 311.385 1318.22 311.147C1318.7 310.898 1319.01 310.58 1319.14 310.195ZM1316.35 306.047C1315.54 306.047 1314.88 306.228 1314.37 306.591C1313.86 306.942 1313.53 307.379 1313.38 307.9H1319.13C1319.07 307.333 1318.8 306.886 1318.31 306.557C1317.83 306.217 1317.18 306.047 1316.35 306.047ZM1322.57 304.551H1324.78V313H1322.57V304.551ZM1328.03 306.37C1327.39 306.37 1326.84 306.495 1326.38 306.744C1325.92 306.982 1325.54 307.277 1325.26 307.628C1324.97 307.979 1324.78 308.319 1324.66 308.648L1324.65 307.713C1324.66 307.577 1324.7 307.379 1324.78 307.118C1324.86 306.846 1324.98 306.557 1325.14 306.251C1325.3 305.934 1325.51 305.633 1325.77 305.35C1326.03 305.055 1326.35 304.817 1326.72 304.636C1327.09 304.455 1327.53 304.364 1328.03 304.364V306.37ZM1328.66 310.195H1330.7C1330.83 310.58 1331.08 310.898 1331.47 311.147C1331.87 311.385 1332.38 311.504 1333.02 311.504C1333.45 311.504 1333.78 311.464 1334.02 311.385C1334.26 311.306 1334.42 311.192 1334.51 311.045C1334.6 310.886 1334.65 310.711 1334.65 310.518C1334.65 310.28 1334.57 310.099 1334.43 309.974C1334.28 309.838 1334.05 309.73 1333.75 309.651C1333.44 309.572 1333.05 309.498 1332.57 309.43C1332.1 309.351 1331.64 309.254 1331.2 309.141C1330.76 309.028 1330.36 308.88 1330.02 308.699C1329.68 308.506 1329.41 308.268 1329.21 307.985C1329.02 307.69 1328.92 307.333 1328.92 306.914C1328.92 306.506 1329.02 306.143 1329.21 305.826C1329.41 305.509 1329.69 305.242 1330.04 305.027C1330.4 304.812 1330.82 304.647 1331.3 304.534C1331.79 304.421 1332.31 304.364 1332.86 304.364C1333.7 304.364 1334.4 304.489 1334.95 304.738C1335.51 304.976 1335.92 305.316 1336.2 305.758C1336.48 306.189 1336.62 306.687 1336.62 307.254H1334.67C1334.57 306.835 1334.39 306.534 1334.12 306.353C1333.85 306.16 1333.43 306.064 1332.86 306.064C1332.31 306.064 1331.89 306.149 1331.61 306.319C1331.32 306.489 1331.18 306.721 1331.18 307.016C1331.18 307.254 1331.27 307.441 1331.44 307.577C1331.62 307.702 1331.88 307.804 1332.22 307.883C1332.57 307.962 1333 308.047 1333.53 308.138C1333.97 308.229 1334.39 308.331 1334.78 308.444C1335.19 308.557 1335.55 308.705 1335.87 308.886C1336.19 309.056 1336.44 309.288 1336.62 309.583C1336.81 309.866 1336.91 310.229 1336.91 310.671C1336.91 311.215 1336.75 311.674 1336.43 312.048C1336.13 312.422 1335.69 312.711 1335.11 312.915C1334.53 313.108 1333.84 313.204 1333.03 313.204C1332.32 313.204 1331.7 313.13 1331.18 312.983C1330.67 312.824 1330.25 312.626 1329.91 312.388C1329.57 312.139 1329.3 311.878 1329.11 311.606C1328.92 311.323 1328.8 311.056 1328.73 310.807C1328.66 310.558 1328.64 310.354 1328.66 310.195ZM1345.91 310.195H1348.05C1347.96 310.773 1347.72 311.289 1347.32 311.742C1346.94 312.195 1346.41 312.552 1345.74 312.813C1345.07 313.074 1344.26 313.204 1343.29 313.204C1342.22 313.204 1341.26 313.034 1340.44 312.694C1339.61 312.343 1338.96 311.838 1338.5 311.181C1338.03 310.524 1337.8 309.73 1337.8 308.801C1337.8 307.872 1338.03 307.078 1338.48 306.421C1338.93 305.752 1339.56 305.242 1340.37 304.891C1341.18 304.54 1342.14 304.364 1343.22 304.364C1344.33 304.364 1345.26 304.54 1345.99 304.891C1346.73 305.242 1347.28 305.775 1347.63 306.489C1347.99 307.192 1348.14 308.093 1348.09 309.192H1340.03C1340.08 309.623 1340.24 310.014 1340.5 310.365C1340.78 310.716 1341.14 310.994 1341.59 311.198C1342.06 311.402 1342.61 311.504 1343.24 311.504C1343.94 311.504 1344.53 311.385 1344.99 311.147C1345.47 310.898 1345.77 310.58 1345.91 310.195ZM1343.12 306.047C1342.31 306.047 1341.64 306.228 1341.13 306.591C1340.62 306.942 1340.29 307.379 1340.15 307.9H1345.89C1345.84 307.333 1345.56 306.886 1345.08 306.557C1344.6 306.217 1343.95 306.047 1343.12 306.047ZM1341.98 302.783L1344.29 300.097H1347.22L1344.09 302.783H1341.98ZM1359.37 309.668C1359.31 310.405 1359.07 311.039 1358.66 311.572C1358.25 312.105 1357.68 312.513 1356.96 312.796C1356.23 313.068 1355.37 313.204 1354.37 313.204C1353.33 313.204 1352.39 313.04 1351.57 312.711C1350.75 312.371 1350.1 311.878 1349.63 311.232C1349.16 310.575 1348.93 309.764 1348.93 308.801C1348.93 307.838 1349.16 307.027 1349.63 306.37C1350.1 305.713 1350.75 305.214 1351.57 304.874C1352.39 304.534 1353.33 304.364 1354.37 304.364C1355.37 304.364 1356.22 304.506 1356.94 304.789C1357.65 305.061 1358.21 305.458 1358.62 305.979C1359.04 306.5 1359.28 307.129 1359.35 307.866H1357.33C1357.14 307.299 1356.78 306.857 1356.26 306.54C1355.74 306.223 1355.11 306.064 1354.37 306.064C1353.78 306.064 1353.24 306.166 1352.76 306.37C1352.28 306.574 1351.9 306.88 1351.6 307.288C1351.32 307.685 1351.18 308.189 1351.18 308.801C1351.18 309.402 1351.32 309.906 1351.6 310.314C1351.88 310.711 1352.27 311.011 1352.76 311.215C1353.24 311.408 1353.78 311.504 1354.37 311.504C1355.16 311.504 1355.81 311.345 1356.31 311.028C1356.82 310.711 1357.17 310.257 1357.35 309.668H1359.37ZM1370.38 313H1368.17V304.551H1370.38V313ZM1368.29 308.937L1368.3 309.515C1368.28 309.674 1368.22 309.906 1368.13 310.212C1368.04 310.507 1367.9 310.824 1367.71 311.164C1367.53 311.504 1367.29 311.833 1366.99 312.15C1366.7 312.456 1366.34 312.711 1365.91 312.915C1365.48 313.108 1364.97 313.204 1364.38 313.204C1363.91 313.204 1363.45 313.147 1363 313.034C1362.56 312.921 1362.16 312.734 1361.79 312.473C1361.43 312.201 1361.14 311.838 1360.93 311.385C1360.71 310.932 1360.6 310.359 1360.6 309.668V304.551H1362.81V309.294C1362.81 309.838 1362.9 310.269 1363.07 310.586C1363.25 310.892 1363.51 311.107 1363.85 311.232C1364.19 311.357 1364.59 311.419 1365.06 311.419C1365.67 311.419 1366.2 311.289 1366.64 311.028C1367.08 310.756 1367.44 310.427 1367.71 310.042C1367.99 309.657 1368.18 309.288 1368.29 308.937ZM1372 304.551H1374.21V313H1372V304.551ZM1377.46 306.37C1376.82 306.37 1376.27 306.495 1375.81 306.744C1375.34 306.982 1374.97 307.277 1374.68 307.628C1374.4 307.979 1374.2 308.319 1374.09 308.648L1374.07 307.713C1374.08 307.577 1374.13 307.379 1374.21 307.118C1374.29 306.846 1374.41 306.557 1374.57 306.251C1374.72 305.934 1374.93 305.633 1375.19 305.35C1375.46 305.055 1375.77 304.817 1376.15 304.636C1376.52 304.455 1376.96 304.364 1377.46 304.364V306.37ZM1380.96 300.845V302.783H1378.4V300.845H1380.96ZM1378.57 304.551H1380.78V313H1378.57V304.551ZM1381.99 304.551H1388.56V306.268H1381.99V304.551ZM1384.17 302.239H1386.38V313H1384.17V302.239ZM1397.15 310.195H1399.3C1399.21 310.773 1398.96 311.289 1398.56 311.742C1398.18 312.195 1397.65 312.552 1396.98 312.813C1396.32 313.074 1395.5 313.204 1394.54 313.204C1393.46 313.204 1392.51 313.034 1391.68 312.694C1390.85 312.343 1390.21 311.838 1389.74 311.181C1389.28 310.524 1389.04 309.73 1389.04 308.801C1389.04 307.872 1389.27 307.078 1389.72 306.421C1390.18 305.752 1390.81 305.242 1391.61 304.891C1392.43 304.54 1393.38 304.364 1394.47 304.364C1395.58 304.364 1396.5 304.54 1397.24 304.891C1397.98 305.242 1398.52 305.775 1398.87 306.489C1399.23 307.192 1399.39 308.093 1399.33 309.192H1391.27C1391.33 309.623 1391.49 310.014 1391.75 310.365C1392.02 310.716 1392.38 310.994 1392.84 311.198C1393.3 311.402 1393.85 311.504 1394.48 311.504C1395.19 311.504 1395.77 311.385 1396.24 311.147C1396.71 310.898 1397.02 310.58 1397.15 310.195ZM1394.37 306.047C1393.55 306.047 1392.89 306.228 1392.38 306.591C1391.87 306.942 1391.54 307.379 1391.39 307.9H1397.14C1397.08 307.333 1396.81 306.886 1396.32 306.557C1395.84 306.217 1395.19 306.047 1394.37 306.047ZM1393.23 302.783L1395.54 300.097H1398.46L1395.33 302.783H1393.23Z" fill="white"/>
<path opacity="0.5" d="M1367.38 248.5L1323.51 229.185L1318.37 181.517L1357.11 153.172L1400.98 172.495L1406.12 220.155L1367.38 248.5Z" fill="white" fill-opacity="0.78"/>
<path opacity="0.5" d="M1304.38 465.5L1260.51 446.185L1255.37 398.517L1294.11 370.172L1337.98 389.495L1343.12 437.155L1304.38 465.5Z" fill="white" fill-opacity="0.21"/>
</g>
<g clip-path="url(#clip2_489_94)">
<path d="M886.75 222L800 111L886.75 0H1060.25L1147 111L1060.25 222H886.75Z" fill="url(#paint5_linear_489_94)"/>
<path d="M877.871 106.001H880.132V117H877.871V106.001ZM882.38 108.551H884.59V117H882.38V108.551ZM888.517 108.364C889.038 108.364 889.52 108.432 889.962 108.568C890.404 108.704 890.789 108.914 891.118 109.197C891.447 109.48 891.702 109.843 891.883 110.285C892.064 110.716 892.155 111.231 892.155 111.832V117H889.945V112.223C889.945 111.509 889.769 110.988 889.418 110.659C889.078 110.319 888.517 110.149 887.735 110.149C887.146 110.149 886.613 110.262 886.137 110.489C885.661 110.716 885.276 111.005 884.981 111.356C884.686 111.696 884.516 112.053 884.471 112.427L884.454 111.56C884.511 111.163 884.641 110.778 884.845 110.404C885.049 110.03 885.321 109.69 885.661 109.384C886.012 109.067 886.426 108.817 886.902 108.636C887.378 108.455 887.916 108.364 888.517 108.364ZM893.181 108.551H899.743V110.268H893.181V108.551ZM895.357 106.239H897.567V117H895.357V106.239ZM908.341 114.195H910.483C910.392 114.773 910.149 115.289 909.752 115.742C909.367 116.195 908.84 116.552 908.171 116.813C907.502 117.074 906.686 117.204 905.723 117.204C904.646 117.204 903.694 117.034 902.867 116.694C902.04 116.343 901.394 115.838 900.929 115.181C900.464 114.524 900.232 113.73 900.232 112.801C900.232 111.872 900.459 111.078 900.912 110.421C901.365 109.752 901.994 109.242 902.799 108.891C903.615 108.54 904.567 108.364 905.655 108.364C906.766 108.364 907.689 108.54 908.426 108.891C909.163 109.242 909.707 109.775 910.058 110.489C910.421 111.192 910.574 112.093 910.517 113.192H902.459C902.516 113.623 902.674 114.014 902.935 114.365C903.207 114.716 903.57 114.994 904.023 115.198C904.488 115.402 905.037 115.504 905.672 115.504C906.375 115.504 906.958 115.385 907.423 115.147C907.899 114.898 908.205 114.58 908.341 114.195ZM905.553 110.047C904.737 110.047 904.074 110.228 903.564 110.591C903.054 110.942 902.725 111.379 902.578 111.9H908.324C908.267 111.333 907.995 110.886 907.508 110.557C907.032 110.217 906.38 110.047 905.553 110.047ZM911.94 105.151H914.15V117H911.94V105.151ZM916.165 105.151H918.375V117H916.165V105.151ZM922.752 104.845V106.783H920.185V104.845H922.752ZM920.355 108.551H922.565V117H920.355V108.551ZM928.593 115.708C927.675 115.708 926.864 115.572 926.162 115.3C925.47 115.017 924.932 114.603 924.547 114.059C924.161 113.515 923.969 112.858 923.969 112.087C923.969 111.328 924.156 110.67 924.53 110.115C924.904 109.56 925.436 109.129 926.128 108.823C926.83 108.517 927.652 108.364 928.593 108.364C928.853 108.364 929.103 108.381 929.341 108.415C929.59 108.449 929.834 108.494 930.072 108.551L934.339 108.568V110.234C933.761 110.245 933.171 110.177 932.571 110.03C931.981 109.871 931.46 109.701 931.007 109.52L930.956 109.401C931.341 109.582 931.704 109.809 932.044 110.081C932.384 110.342 932.656 110.648 932.86 110.999C933.075 111.339 933.183 111.736 933.183 112.189C933.183 112.926 932.996 113.56 932.622 114.093C932.248 114.614 931.715 115.017 931.024 115.3C930.344 115.572 929.533 115.708 928.593 115.708ZM931.432 120.485V120.077C931.432 119.556 931.262 119.193 930.922 118.989C930.593 118.785 930.14 118.683 929.562 118.683H926.927C926.417 118.683 925.986 118.643 925.635 118.564C925.295 118.485 925.023 118.371 924.819 118.224C924.615 118.077 924.467 117.901 924.377 117.697C924.286 117.504 924.241 117.295 924.241 117.068C924.241 116.615 924.388 116.275 924.683 116.048C924.977 115.81 925.374 115.651 925.873 115.572C926.371 115.493 926.921 115.476 927.522 115.521L928.593 115.708C927.879 115.731 927.346 115.793 926.995 115.895C926.655 115.986 926.485 116.173 926.485 116.456C926.485 116.626 926.553 116.762 926.689 116.864C926.825 116.955 927.017 117 927.267 117H930.038C930.797 117 931.443 117.079 931.976 117.238C932.52 117.408 932.933 117.686 933.217 118.071C933.5 118.468 933.642 119.006 933.642 119.686V120.485H931.432ZM928.593 114.11C929.08 114.11 929.505 114.031 929.868 113.872C930.242 113.713 930.531 113.487 930.735 113.192C930.939 112.886 931.041 112.523 931.041 112.104C931.041 111.673 930.939 111.305 930.735 110.999C930.531 110.693 930.247 110.461 929.885 110.302C929.522 110.132 929.091 110.047 928.593 110.047C928.105 110.047 927.675 110.132 927.301 110.302C926.927 110.461 926.638 110.693 926.434 110.999C926.23 111.305 926.128 111.673 926.128 112.104C926.128 112.523 926.23 112.886 926.434 113.192C926.638 113.487 926.921 113.713 927.284 113.872C927.658 114.031 928.094 114.11 928.593 114.11ZM942.943 114.195H945.085C944.994 114.773 944.75 115.289 944.354 115.742C943.968 116.195 943.441 116.552 942.773 116.813C942.104 117.074 941.288 117.204 940.325 117.204C939.248 117.204 938.296 117.034 937.469 116.694C936.641 116.343 935.995 115.838 935.531 115.181C935.066 114.524 934.834 113.73 934.834 112.801C934.834 111.872 935.06 111.078 935.514 110.421C935.967 109.752 936.596 109.242 937.401 108.891C938.217 108.54 939.169 108.364 940.257 108.364C941.367 108.364 942.291 108.54 943.028 108.891C943.764 109.242 944.308 109.775 944.66 110.489C945.022 111.192 945.175 112.093 945.119 113.192H937.061C937.117 113.623 937.276 114.014 937.537 114.365C937.809 114.716 938.171 114.994 938.625 115.198C939.089 115.402 939.639 115.504 940.274 115.504C940.976 115.504 941.56 115.385 942.025 115.147C942.501 114.898 942.807 114.58 942.943 114.195ZM940.155 110.047C939.339 110.047 938.676 110.228 938.166 110.591C937.656 110.942 937.327 111.379 937.18 111.9H942.926C942.869 111.333 942.597 110.886 942.11 110.557C941.634 110.217 940.982 110.047 940.155 110.047ZM946.372 108.551H948.582V117H946.372V108.551ZM952.509 108.364C953.03 108.364 953.512 108.432 953.954 108.568C954.396 108.704 954.781 108.914 955.11 109.197C955.439 109.48 955.694 109.843 955.875 110.285C956.056 110.716 956.147 111.231 956.147 111.832V117H953.937V112.223C953.937 111.509 953.761 110.988 953.41 110.659C953.07 110.319 952.509 110.149 951.727 110.149C951.138 110.149 950.605 110.262 950.129 110.489C949.653 110.716 949.268 111.005 948.973 111.356C948.678 111.696 948.508 112.053 948.463 112.427L948.446 111.56C948.503 111.163 948.633 110.778 948.837 110.404C949.041 110.03 949.313 109.69 949.653 109.384C950.004 109.067 950.418 108.817 950.894 108.636C951.37 108.455 951.908 108.364 952.509 108.364ZM967.798 113.668C967.741 114.405 967.503 115.039 967.084 115.572C966.676 116.105 966.109 116.513 965.384 116.796C964.659 117.068 963.797 117.204 962.8 117.204C961.757 117.204 960.822 117.04 959.995 116.711C959.179 116.371 958.533 115.878 958.057 115.232C957.592 114.575 957.36 113.764 957.36 112.801C957.36 111.838 957.592 111.027 958.057 110.37C958.533 109.713 959.179 109.214 959.995 108.874C960.822 108.534 961.757 108.364 962.8 108.364C963.797 108.364 964.653 108.506 965.367 108.789C966.081 109.061 966.642 109.458 967.05 109.979C967.469 110.5 967.713 111.129 967.781 111.866H965.758C965.565 111.299 965.208 110.857 964.687 110.54C964.166 110.223 963.537 110.064 962.8 110.064C962.211 110.064 961.672 110.166 961.185 110.37C960.709 110.574 960.324 110.88 960.029 111.288C959.746 111.685 959.604 112.189 959.604 112.801C959.604 113.402 959.746 113.906 960.029 114.314C960.312 114.711 960.698 115.011 961.185 115.215C961.672 115.408 962.211 115.504 962.8 115.504C963.593 115.504 964.239 115.345 964.738 115.028C965.248 114.711 965.594 114.257 965.775 113.668H967.798ZM976.732 114.195H978.874C978.784 114.773 978.54 115.289 978.143 115.742C977.758 116.195 977.231 116.552 976.562 116.813C975.894 117.074 975.078 117.204 974.114 117.204C973.038 117.204 972.086 117.034 971.258 116.694C970.431 116.343 969.785 115.838 969.32 115.181C968.856 114.524 968.623 113.73 968.623 112.801C968.623 111.872 968.85 111.078 969.303 110.421C969.757 109.752 970.386 109.242 971.19 108.891C972.006 108.54 972.958 108.364 974.046 108.364C975.157 108.364 976.081 108.54 976.817 108.891C977.554 109.242 978.098 109.775 978.449 110.489C978.812 111.192 978.965 112.093 978.908 113.192H970.85C970.907 113.623 971.066 114.014 971.326 114.365C971.598 114.716 971.961 114.994 972.414 115.198C972.879 115.402 973.429 115.504 974.063 115.504C974.766 115.504 975.35 115.385 975.814 115.147C976.29 114.898 976.596 114.58 976.732 114.195ZM973.944 110.047C973.128 110.047 972.465 110.228 971.955 110.591C971.445 110.942 971.117 111.379 970.969 111.9H976.715C976.659 111.333 976.387 110.886 975.899 110.557C975.423 110.217 974.772 110.047 973.944 110.047ZM985.877 114.603V112.716H993.153V114.603H985.877ZM983.14 117L988.308 106.001H990.756L995.975 117H993.51L988.988 107.089H990.076L985.588 117H983.14ZM996.895 108.551H999.105V117H996.895V108.551ZM1002.35 110.37C1001.72 110.37 1001.17 110.495 1000.7 110.744C1000.24 110.982 999.864 111.277 999.581 111.628C999.297 111.979 999.099 112.319 998.986 112.648L998.969 111.713C998.98 111.577 999.025 111.379 999.105 111.118C999.184 110.846 999.303 110.557 999.462 110.251C999.62 109.934 999.83 109.633 1000.09 109.35C1000.35 109.055 1000.67 108.817 1001.04 108.636C1001.42 108.455 1001.85 108.364 1002.35 108.364V110.37ZM1002.78 108.551H1009.34V110.268H1002.78V108.551ZM1004.96 106.239H1007.17V117H1004.96V106.239ZM1012.89 104.845V106.783H1010.32V104.845H1012.89ZM1010.49 108.551H1012.7V117H1010.49V108.551ZM1020.07 110.625V108.942H1024.31V110.625H1020.07ZM1022.42 108.942H1024.63V117H1022.42V108.942ZM1015.82 117V108.092L1018.03 108.364V117H1015.82ZM1019.09 105.151H1024.63V106.936H1019.61C1019.29 106.925 1019 106.959 1018.76 107.038C1018.53 107.117 1018.35 107.265 1018.22 107.48C1018.1 107.684 1018.03 107.979 1018.03 108.364L1015.82 108.092C1015.82 107.412 1015.95 106.857 1016.2 106.426C1016.45 105.984 1016.82 105.661 1017.3 105.457C1017.79 105.253 1018.38 105.151 1019.09 105.151ZM1013.92 108.942H1020.72V110.625H1013.92V108.942ZM1036.29 113.668C1036.23 114.405 1035.99 115.039 1035.58 115.572C1035.17 116.105 1034.6 116.513 1033.88 116.796C1033.15 117.068 1032.29 117.204 1031.29 117.204C1030.25 117.204 1029.31 117.04 1028.49 116.711C1027.67 116.371 1027.02 115.878 1026.55 115.232C1026.08 114.575 1025.85 113.764 1025.85 112.801C1025.85 111.838 1026.08 111.027 1026.55 110.37C1027.02 109.713 1027.67 109.214 1028.49 108.874C1029.31 108.534 1030.25 108.364 1031.29 108.364C1032.29 108.364 1033.14 108.506 1033.86 108.789C1034.57 109.061 1035.13 109.458 1035.54 109.979C1035.96 110.5 1036.2 111.129 1036.27 111.866H1034.25C1034.06 111.299 1033.7 110.857 1033.18 110.54C1032.66 110.223 1032.03 110.064 1031.29 110.064C1030.7 110.064 1030.16 110.166 1029.68 110.37C1029.2 110.574 1028.81 110.88 1028.52 111.288C1028.24 111.685 1028.1 112.189 1028.1 112.801C1028.1 113.402 1028.24 113.906 1028.52 114.314C1028.8 114.711 1029.19 115.011 1029.68 115.215C1030.16 115.408 1030.7 115.504 1031.29 115.504C1032.08 115.504 1032.73 115.345 1033.23 115.028C1033.74 114.711 1034.08 114.257 1034.27 113.668H1036.29ZM1040.06 104.845V106.783H1037.49V104.845H1040.06ZM1037.66 108.551H1039.87V117H1037.66V108.551ZM1049.38 114.195H1051.52C1051.43 114.773 1051.19 115.289 1050.79 115.742C1050.41 116.195 1049.88 116.552 1049.21 116.813C1048.54 117.074 1047.73 117.204 1046.76 117.204C1045.69 117.204 1044.73 117.034 1043.91 116.694C1043.08 116.343 1042.43 115.838 1041.97 115.181C1041.5 114.524 1041.27 113.73 1041.27 112.801C1041.27 111.872 1041.5 111.078 1041.95 110.421C1042.41 109.752 1043.03 109.242 1043.84 108.891C1044.66 108.54 1045.61 108.364 1046.7 108.364C1047.81 108.364 1048.73 108.54 1049.47 108.891C1050.2 109.242 1050.75 109.775 1051.1 110.489C1051.46 111.192 1051.61 112.093 1051.56 113.192H1043.5C1043.56 113.623 1043.71 114.014 1043.98 114.365C1044.25 114.716 1044.61 114.994 1045.06 115.198C1045.53 115.402 1046.08 115.504 1046.71 115.504C1047.42 115.504 1048 115.385 1048.46 115.147C1048.94 114.898 1049.25 114.58 1049.38 114.195ZM1046.59 110.047C1045.78 110.047 1045.11 110.228 1044.6 110.591C1044.09 110.942 1043.77 111.379 1043.62 111.9H1049.36C1049.31 111.333 1049.04 110.886 1048.55 110.557C1048.07 110.217 1047.42 110.047 1046.59 110.047ZM1052.98 105.151H1055.19V117H1052.98V105.151ZM1057.21 105.151H1059.42V117H1057.21V105.151ZM1068.96 114.195H1071.1C1071.01 114.773 1070.77 115.289 1070.37 115.742C1069.99 116.195 1069.46 116.552 1068.79 116.813C1068.12 117.074 1067.31 117.204 1066.34 117.204C1065.27 117.204 1064.31 117.034 1063.49 116.694C1062.66 116.343 1062.01 115.838 1061.55 115.181C1061.08 114.524 1060.85 113.73 1060.85 112.801C1060.85 111.872 1061.08 111.078 1061.53 110.421C1061.98 109.752 1062.61 109.242 1063.42 108.891C1064.23 108.54 1065.19 108.364 1066.27 108.364C1067.39 108.364 1068.31 108.54 1069.05 108.891C1069.78 109.242 1070.33 109.775 1070.68 110.489C1071.04 111.192 1071.19 112.093 1071.14 113.192H1063.08C1063.14 113.623 1063.29 114.014 1063.55 114.365C1063.83 114.716 1064.19 114.994 1064.64 115.198C1065.11 115.402 1065.66 115.504 1066.29 115.504C1066.99 115.504 1067.58 115.385 1068.04 115.147C1068.52 114.898 1068.82 114.58 1068.96 114.195ZM1066.17 110.047C1065.36 110.047 1064.69 110.228 1064.18 110.591C1063.67 110.942 1063.34 111.379 1063.2 111.9H1068.94C1068.89 111.333 1068.61 110.886 1068.13 110.557C1067.65 110.217 1067 110.047 1066.17 110.047Z" fill="white"/>
<path opacity="0.5" d="M1004.38 52.5003L960.509 33.1847L955.369 -14.4827L994.106 -42.8276L1037.98 -23.5051L1043.12 24.1554L1004.38 52.5003Z" fill="white" fill-opacity="0.78"/>
<path opacity="0.5" d="M941.382 269.5L897.509 250.185L892.369 202.517L931.106 174.172L974.983 193.495L980.119 241.155L941.382 269.5Z" fill="white" fill-opacity="0.21"/>
</g>
<g clip-path="url(#clip3_489_94)">
<path d="M523.75 418L437 307L523.75 196H697.25L784 307L697.25 418H523.75Z" fill="url(#paint6_linear_489_94)"/>
<path d="M558.739 308.41V311.113H567.222V313H556.478V302.001H567.205V303.888H558.739V306.625H565.675V308.41H558.739ZM569.152 313V302.001H576.615C577.465 302.001 578.202 302.12 578.825 302.358C579.46 302.585 579.953 302.947 580.304 303.446C580.655 303.933 580.831 304.562 580.831 305.333C580.831 305.854 580.74 306.296 580.559 306.659C580.378 307.022 580.123 307.316 579.794 307.543C579.477 307.77 579.108 307.945 578.689 308.07C578.27 308.183 577.822 308.257 577.346 308.291L577.108 308.155C577.901 308.166 578.553 308.234 579.063 308.359C579.573 308.472 579.953 308.688 580.202 309.005C580.463 309.311 580.593 309.77 580.593 310.382V313H578.332V310.535C578.332 310.116 578.258 309.793 578.111 309.566C577.964 309.328 577.697 309.164 577.312 309.073C576.938 308.982 576.394 308.937 575.68 308.937H571.413V313H569.152ZM571.413 307.169H576.615C577.25 307.169 577.731 307.016 578.06 306.71C578.4 306.404 578.57 305.99 578.57 305.469C578.57 304.97 578.4 304.591 578.06 304.33C577.731 304.069 577.25 303.939 576.615 303.939H571.413V307.169ZM584.761 309.43V307.628H589.793C590.394 307.628 590.87 307.469 591.221 307.152C591.572 306.823 591.748 306.37 591.748 305.792C591.748 305.191 591.572 304.732 591.221 304.415C590.87 304.098 590.394 303.939 589.793 303.939H585.033V313H582.772V302.001H589.589C590.201 302.001 590.773 302.075 591.306 302.222C591.85 302.369 592.32 302.596 592.717 302.902C593.125 303.208 593.442 303.599 593.669 304.075C593.896 304.551 594.009 305.123 594.009 305.792C594.009 306.449 593.896 307.01 593.669 307.475C593.442 307.94 593.125 308.319 592.717 308.614C592.32 308.897 591.85 309.107 591.306 309.243C590.773 309.368 590.201 309.43 589.589 309.43H584.761ZM606.868 310.195H609.01C608.919 310.773 608.675 311.289 608.279 311.742C607.893 312.195 607.366 312.552 606.698 312.813C606.029 313.074 605.213 313.204 604.25 313.204C603.173 313.204 602.221 313.034 601.394 312.694C600.566 312.343 599.92 311.838 599.456 311.181C598.991 310.524 598.759 309.73 598.759 308.801C598.759 307.872 598.985 307.078 599.439 306.421C599.892 305.752 600.521 305.242 601.326 304.891C602.142 304.54 603.094 304.364 604.182 304.364C605.292 304.364 606.216 304.54 606.953 304.891C607.689 305.242 608.233 305.775 608.585 306.489C608.947 307.192 609.1 308.093 609.044 309.192H600.986C601.042 309.623 601.201 310.014 601.462 310.365C601.734 310.716 602.096 310.994 602.55 311.198C603.014 311.402 603.564 311.504 604.199 311.504C604.901 311.504 605.485 311.385 605.95 311.147C606.426 310.898 606.732 310.58 606.868 310.195ZM604.08 306.047C603.264 306.047 602.601 306.228 602.091 306.591C601.581 306.942 601.252 307.379 601.105 307.9H606.851C606.794 307.333 606.522 306.886 606.035 306.557C605.559 306.217 604.907 306.047 604.08 306.047ZM609.586 304.551H616.148V306.268H609.586V304.551ZM611.762 302.239H613.972V313H611.762V302.239ZM633.995 309.039C633.893 309.923 633.581 310.677 633.06 311.3C632.538 311.923 631.83 312.399 630.935 312.728C630.039 313.057 628.974 313.221 627.739 313.221C626.707 313.221 625.761 313.102 624.9 312.864C624.05 312.626 623.313 312.269 622.69 311.793C622.078 311.317 621.602 310.728 621.262 310.025C620.922 309.311 620.752 308.478 620.752 307.526C620.752 306.574 620.922 305.741 621.262 305.027C621.602 304.313 622.078 303.718 622.69 303.242C623.313 302.755 624.05 302.392 624.9 302.154C625.761 301.905 626.707 301.78 627.739 301.78C628.974 301.78 630.039 301.95 630.935 302.29C631.841 302.63 632.555 303.117 633.077 303.752C633.598 304.375 633.904 305.135 633.995 306.03H631.751C631.603 305.554 631.354 305.146 631.003 304.806C630.663 304.455 630.221 304.188 629.677 304.007C629.133 303.826 628.487 303.735 627.739 303.735C626.809 303.735 625.993 303.882 625.291 304.177C624.588 304.46 624.044 304.885 623.659 305.452C623.273 306.007 623.081 306.699 623.081 307.526C623.081 308.342 623.273 309.028 623.659 309.583C624.044 310.138 624.588 310.563 625.291 310.858C625.993 311.141 626.809 311.283 627.739 311.283C628.487 311.283 629.127 311.192 629.66 311.011C630.204 310.83 630.646 310.569 630.986 310.229C631.337 309.889 631.592 309.492 631.751 309.039H633.995ZM635.81 313V302.001H643.273C644.123 302.001 644.859 302.12 645.483 302.358C646.117 302.585 646.61 302.947 646.962 303.446C647.313 303.933 647.489 304.562 647.489 305.333C647.489 305.854 647.398 306.296 647.217 306.659C647.035 307.022 646.78 307.316 646.452 307.543C646.134 307.77 645.766 307.945 645.347 308.07C644.927 308.183 644.48 308.257 644.004 308.291L643.766 308.155C644.559 308.166 645.211 308.234 645.721 308.359C646.231 308.472 646.61 308.688 646.86 309.005C647.12 309.311 647.251 309.77 647.251 310.382V313H644.99V310.535C644.99 310.116 644.916 309.793 644.769 309.566C644.621 309.328 644.355 309.164 643.97 309.073C643.596 308.982 643.052 308.937 642.338 308.937H638.071V313H635.81ZM638.071 307.169H643.273C643.907 307.169 644.389 307.016 644.718 306.71C645.058 306.404 645.228 305.99 645.228 305.469C645.228 304.97 645.058 304.591 644.718 304.33C644.389 304.069 643.907 303.939 643.273 303.939H638.071V307.169ZM658.015 311.878H656.944L663.268 302.001H665.529V313H663.268V305.01L663.812 305.163L658.763 313H656.23L651.181 305.197L651.725 305.044V313H649.464V302.001H651.725L658.015 311.878Z" fill="white"/>
<path opacity="0.5" d="M641.382 248.5L597.509 229.185L592.369 181.517L631.106 153.172L674.983 172.495L680.119 220.155L641.382 248.5Z" fill="white" fill-opacity="0.78"/>
<path opacity="0.5" d="M578.382 465.5L534.509 446.185L529.369 398.517L568.106 370.172L611.983 389.495L617.119 437.155L578.382 465.5Z" fill="white" fill-opacity="0.21"/>
</g>
<defs>
<linearGradient id="paint0_linear_489_94" x1="254.781" y1="139.45" x2="519.781" y2="268.45" gradientUnits="userSpaceOnUse">
<stop stop-color="#E39311"/>
<stop offset="1" stop-color="white"/>
</linearGradient>
<linearGradient id="paint1_linear_489_94" x1="1055.78" y1="168.45" x2="1320.78" y2="297.45" gradientUnits="userSpaceOnUse">
<stop stop-color="#E39311"/>
<stop offset="1" stop-color="white"/>
</linearGradient>
<linearGradient id="paint2_linear_489_94" x1="651.297" y1="314.475" x2="888.395" y2="139.402" gradientUnits="userSpaceOnUse">
<stop stop-color="#E39311"/>
<stop offset="1" stop-color="white"/>
</linearGradient>
<linearGradient id="paint3_linear_489_94" x1="160.534" y1="1.32197" x2="269.159" y2="252.284" gradientUnits="userSpaceOnUse">
<stop stop-color="#FDEC56"/>
<stop offset="1" stop-color="#FC6621"/>
</linearGradient>
<linearGradient id="paint4_linear_489_94" x1="1249.53" y1="197.322" x2="1358.16" y2="448.284" gradientUnits="userSpaceOnUse">
<stop stop-color="#FDEC56"/>
<stop offset="1" stop-color="#FC6621"/>
</linearGradient>
<linearGradient id="paint5_linear_489_94" x1="886.534" y1="1.32197" x2="995.159" y2="252.284" gradientUnits="userSpaceOnUse">
<stop stop-color="#FDEC56"/>
<stop offset="1" stop-color="#FC6621"/>
</linearGradient>
<linearGradient id="paint6_linear_489_94" x1="523.534" y1="197.322" x2="632.159" y2="448.284" gradientUnits="userSpaceOnUse">
<stop stop-color="#FDEC56"/>
<stop offset="1" stop-color="#FC6621"/>
</linearGradient>
<clipPath id="clip0_489_94">
<rect width="347" height="222" fill="white" transform="translate(74)"/>
</clipPath>
<clipPath id="clip1_489_94">
<rect width="347" height="222" fill="white" transform="translate(1163 196)"/>
</clipPath>
<clipPath id="clip2_489_94">
<rect width="347" height="222" fill="white" transform="translate(800)"/>
</clipPath>
<clipPath id="clip3_489_94">
<rect width="347" height="222" fill="white" transform="translate(437 196)"/>
</clipPath>
</defs>
</svg>
