<svg width="298" height="77" viewBox="0 0 298 77" fill="none" xmlns="http://www.w3.org/2000/svg">
<path d="M1.26381 33.3713L15.4484 5.46838C17.154 2.11328 20.5989 0 24.3627 0H274.273C278.185 0 281.738 2.28175 283.366 5.83958L296.129 33.7361C297.319 36.3364 297.339 39.3216 296.183 41.9372L283.327 71.0407C281.727 74.6631 278.14 77 274.18 77H24.4597C20.6454 77 17.1633 74.8302 15.4827 71.4061L1.20112 42.3091C-0.184646 39.4858 -0.161422 36.175 1.26381 33.3713Z" fill="#E39311"/>
<path d="M25.281 30.119C26.9523 30.119 28.3477 30.3183 29.467 30.717C30.5863 31.1157 31.4757 31.66 32.135 32.35C32.8097 33.0247 33.285 33.8067 33.561 34.696C33.8523 35.5853 33.998 36.5207 33.998 37.502C33.998 38.4833 33.837 39.4263 33.515 40.331C33.2083 41.2357 32.71 42.0407 32.02 42.746C31.3453 43.436 30.4483 43.988 29.329 44.402C28.225 44.8007 26.8757 45 25.281 45H16.771V30.119H25.281ZM19.83 42.378H25.212C26.316 42.378 27.2283 42.2477 27.949 41.987C28.685 41.711 29.2677 41.343 29.697 40.883C30.1263 40.423 30.433 39.9017 30.617 39.319C30.801 38.7363 30.893 38.1307 30.893 37.502C30.893 36.8733 30.801 36.2753 30.617 35.708C30.433 35.1407 30.1263 34.6347 29.697 34.19C29.2677 33.7453 28.685 33.3927 27.949 33.132C27.2283 32.8713 26.316 32.741 25.212 32.741H19.83V42.378ZM46.4848 41.205H49.3828C49.2602 41.987 48.9305 42.6847 48.3938 43.298C47.8725 43.9113 47.1595 44.3943 46.2548 44.747C45.3502 45.0997 44.2462 45.276 42.9428 45.276C41.4862 45.276 40.1982 45.046 39.0788 44.586C37.9595 44.1107 37.0855 43.4283 36.4568 42.539C35.8282 41.6497 35.5138 40.5763 35.5138 39.319C35.5138 38.0617 35.8205 36.9883 36.4338 36.099C37.0472 35.1943 37.8982 34.5043 38.9868 34.029C40.0908 33.5537 41.3788 33.316 42.8508 33.316C44.3535 33.316 45.6032 33.5537 46.5998 34.029C47.5965 34.5043 48.3325 35.225 48.8078 36.191C49.2985 37.1417 49.5055 38.3607 49.4288 39.848H38.5268C38.6035 40.4307 38.8182 40.9597 39.1708 41.435C39.5388 41.9103 40.0295 42.286 40.6428 42.562C41.2715 42.838 42.0152 42.976 42.8738 42.976C43.8245 42.976 44.6142 42.815 45.2428 42.493C45.8868 42.1557 46.3008 41.7263 46.4848 41.205ZM42.7128 35.593C41.6088 35.593 40.7118 35.8383 40.0218 36.329C39.3318 36.8043 38.8872 37.3947 38.6878 38.1H46.4618C46.3852 37.3333 46.0172 36.7277 45.3578 36.283C44.7138 35.823 43.8322 35.593 42.7128 35.593ZM51.1247 33.569H54.1147V45H51.1247V33.569ZM59.4277 33.316C60.1331 33.316 60.7847 33.408 61.3827 33.592C61.9807 33.776 62.5021 34.0597 62.9467 34.443C63.3914 34.8263 63.7364 35.317 63.9817 35.915C64.2271 36.4977 64.3497 37.1953 64.3497 38.008V45H61.3597V38.537C61.3597 37.571 61.1221 36.8657 60.6467 36.421C60.1867 35.961 59.4277 35.731 58.3697 35.731C57.5724 35.731 56.8517 35.8843 56.2077 36.191C55.5637 36.4977 55.0424 36.8887 54.6437 37.364C54.2451 37.824 54.0151 38.307 53.9537 38.813L53.9307 37.64C54.0074 37.1033 54.1837 36.582 54.4597 36.076C54.7357 35.57 55.1037 35.11 55.5637 34.696C56.0391 34.2667 56.5987 33.9293 57.2427 33.684C57.8867 33.4387 58.6151 33.316 59.4277 33.316ZM69.3867 33.316C70.0921 33.316 70.7437 33.408 71.3417 33.592C71.9397 33.776 72.4611 34.0597 72.9057 34.443C73.3504 34.8263 73.6954 35.317 73.9407 35.915C74.2014 36.4977 74.3317 37.1953 74.3317 38.008V45H71.3417V38.537C71.3417 37.571 71.1041 36.8657 70.6287 36.421C70.1534 35.961 69.3867 35.731 68.3287 35.731C67.5314 35.731 66.8107 35.8843 66.1667 36.191C65.5227 36.4977 65.0014 36.8887 64.6027 37.364C64.2041 37.824 63.9817 38.307 63.9357 38.813L63.8897 37.571C63.9664 37.065 64.1504 36.559 64.4417 36.053C64.7331 35.547 65.1164 35.087 65.5917 34.673C66.0671 34.259 66.6191 33.9293 67.2477 33.684C67.8917 33.4387 68.6047 33.316 69.3867 33.316ZM82.0817 45.253C80.947 45.253 79.912 45.0077 78.9767 44.517C78.0567 44.011 77.3207 43.3133 76.7687 42.424C76.232 41.5193 75.9637 40.4767 75.9637 39.296C75.9637 38.0847 76.2397 37.0343 76.7917 36.145C77.3437 35.2557 78.0873 34.5657 79.0227 34.075C79.9733 33.569 81.0467 33.316 82.2427 33.316C83.5613 33.316 84.6193 33.5843 85.4167 34.121C86.2293 34.6423 86.8197 35.3553 87.1877 36.26C87.5557 37.1647 87.7397 38.1767 87.7397 39.296C87.7397 39.9707 87.6323 40.6607 87.4177 41.366C87.203 42.056 86.8733 42.7 86.4287 43.298C85.984 43.8807 85.4013 44.356 84.6807 44.724C83.96 45.0767 83.0937 45.253 82.0817 45.253ZM83.0477 42.953C83.9523 42.953 84.7343 42.7997 85.3937 42.493C86.053 42.1863 86.559 41.757 86.9117 41.205C87.2643 40.653 87.4407 40.0167 87.4407 39.296C87.4407 38.514 87.2567 37.8547 86.8887 37.318C86.536 36.766 86.03 36.352 85.3707 36.076C84.7267 35.7847 83.9523 35.639 83.0477 35.639C81.775 35.639 80.786 35.9763 80.0807 36.651C79.3753 37.3103 79.0227 38.192 79.0227 39.296C79.0227 40.032 79.1913 40.676 79.5287 41.228C79.866 41.7647 80.3337 42.1863 80.9317 42.493C81.545 42.7997 82.2503 42.953 83.0477 42.953ZM87.4407 33.569H90.4307V45H87.6477C87.6477 45 87.6247 44.8543 87.5787 44.563C87.548 44.2563 87.5173 43.873 87.4867 43.413C87.456 42.953 87.4407 42.5007 87.4407 42.056V33.569ZM92.6078 33.569H95.5978V45H92.6078V33.569ZM100.911 33.316C101.616 33.316 102.268 33.408 102.866 33.592C103.464 33.776 103.985 34.0597 104.43 34.443C104.874 34.8263 105.219 35.317 105.465 35.915C105.71 36.4977 105.833 37.1953 105.833 38.008V45H102.843V38.537C102.843 37.571 102.605 36.8657 102.13 36.421C101.67 35.961 100.911 35.731 99.8528 35.731C99.0554 35.731 98.3348 35.8843 97.6908 36.191C97.0468 36.4977 96.5254 36.8887 96.1268 37.364C95.7281 37.824 95.4981 38.307 95.4368 38.813L95.4138 37.64C95.4904 37.1033 95.6668 36.582 95.9428 36.076C96.2188 35.57 96.5868 35.11 97.0468 34.696C97.5221 34.2667 98.0818 33.9293 98.7258 33.684C99.3698 33.4387 100.098 33.316 100.911 33.316ZM113.592 45.253C112.442 45.253 111.399 45.0077 110.464 44.517C109.544 44.011 108.816 43.3133 108.279 42.424C107.742 41.5193 107.474 40.4767 107.474 39.296C107.474 38.0847 107.735 37.0343 108.256 36.145C108.793 35.2557 109.521 34.5657 110.441 34.075C111.361 33.569 112.411 33.316 113.592 33.316C114.619 33.316 115.493 33.4693 116.214 33.776C116.935 34.0827 117.517 34.512 117.962 35.064C118.407 35.6007 118.729 36.2293 118.928 36.95C119.143 37.6707 119.25 38.4527 119.25 39.296C119.25 39.9707 119.143 40.6607 118.928 41.366C118.713 42.056 118.384 42.7 117.939 43.298C117.494 43.8807 116.912 44.356 116.191 44.724C115.47 45.0767 114.604 45.253 113.592 45.253ZM114.558 42.953C115.463 42.953 116.245 42.7997 116.904 42.493C117.563 42.1863 118.069 41.757 118.422 41.205C118.775 40.653 118.951 40.0167 118.951 39.296C118.951 38.514 118.767 37.8547 118.399 37.318C118.046 36.766 117.54 36.3443 116.881 36.053C116.237 35.7617 115.463 35.616 114.558 35.616C113.285 35.616 112.296 35.9533 111.591 36.628C110.886 37.3027 110.533 38.192 110.533 39.296C110.533 40.032 110.702 40.676 111.039 41.228C111.376 41.7647 111.844 42.1863 112.442 42.493C113.055 42.7997 113.761 42.953 114.558 42.953ZM118.951 28.969H121.941V45H119.158C119.112 44.6473 119.066 44.195 119.02 43.643C118.974 43.0757 118.951 42.5467 118.951 42.056V28.969ZM135.054 41.205H137.952C137.829 41.987 137.499 42.6847 136.963 43.298C136.441 43.9113 135.728 44.3943 134.824 44.747C133.919 45.0997 132.815 45.276 131.512 45.276C130.055 45.276 128.767 45.046 127.648 44.586C126.528 44.1107 125.654 43.4283 125.026 42.539C124.397 41.6497 124.083 40.5763 124.083 39.319C124.083 38.0617 124.389 36.9883 125.003 36.099C125.616 35.1943 126.467 34.5043 127.556 34.029C128.66 33.5537 129.948 33.316 131.42 33.316C132.922 33.316 134.172 33.5537 135.169 34.029C136.165 34.5043 136.901 35.225 137.377 36.191C137.867 37.1417 138.074 38.3607 137.998 39.848H127.096C127.172 40.4307 127.387 40.9597 127.74 41.435C128.108 41.9103 128.598 42.286 129.212 42.562C129.84 42.838 130.584 42.976 131.443 42.976C132.393 42.976 133.183 42.815 133.812 42.493C134.456 42.1557 134.87 41.7263 135.054 41.205ZM131.282 35.593C130.178 35.593 129.281 35.8383 128.591 36.329C127.901 36.8043 127.456 37.3947 127.257 38.1H135.031C134.954 37.3333 134.586 36.7277 133.927 36.283C133.283 35.823 132.401 35.593 131.282 35.593ZM139.694 33.569H142.684V45H139.694V33.569ZM147.077 36.03C146.218 36.03 145.474 36.1987 144.846 36.536C144.217 36.858 143.711 37.2567 143.328 37.732C142.944 38.2073 142.676 38.6673 142.523 39.112L142.5 37.847C142.515 37.663 142.576 37.3947 142.684 37.042C142.791 36.674 142.952 36.283 143.167 35.869C143.381 35.4397 143.665 35.0333 144.018 34.65C144.37 34.2513 144.8 33.9293 145.306 33.684C145.812 33.4387 146.402 33.316 147.077 33.316V36.03ZM166.64 45H163.65V33.569H166.64V45ZM163.811 39.503L163.834 40.285C163.803 40.4997 163.727 40.814 163.604 41.228C163.481 41.6267 163.29 42.056 163.029 42.516C162.784 42.976 162.462 43.4207 162.063 43.85C161.664 44.264 161.174 44.609 160.591 44.885C160.008 45.1457 159.318 45.276 158.521 45.276C157.892 45.276 157.271 45.1993 156.658 45.046C156.06 44.8927 155.516 44.6397 155.025 44.287C154.534 43.919 154.143 43.4283 153.852 42.815C153.561 42.2017 153.415 41.4273 153.415 40.492V33.569H156.405V39.986C156.405 40.722 156.52 41.3047 156.75 41.734C156.995 42.148 157.348 42.4393 157.808 42.608C158.268 42.7767 158.812 42.861 159.441 42.861C160.269 42.861 160.982 42.6847 161.58 42.332C162.178 41.964 162.661 41.5193 163.029 40.998C163.412 40.4767 163.673 39.9783 163.811 39.503ZM168.833 33.569H171.823V45H168.833V33.569ZM177.136 33.316C177.842 33.316 178.493 33.408 179.091 33.592C179.689 33.776 180.211 34.0597 180.655 34.443C181.1 34.8263 181.445 35.317 181.69 35.915C181.936 36.4977 182.058 37.1953 182.058 38.008V45H179.068V38.537C179.068 37.571 178.831 36.8657 178.355 36.421C177.895 35.961 177.136 35.731 176.078 35.731C175.281 35.731 174.56 35.8843 173.916 36.191C173.272 36.4977 172.751 36.8887 172.352 37.364C171.954 37.824 171.724 38.307 171.662 38.813L171.639 37.64C171.716 37.1033 171.892 36.582 172.168 36.076C172.444 35.57 172.812 35.11 173.272 34.696C173.748 34.2667 174.307 33.9293 174.951 33.684C175.595 33.4387 176.324 33.316 177.136 33.316ZM194.836 45.253C193.686 45.253 192.644 45.0077 191.708 44.517C190.788 44.011 190.06 43.3133 189.523 42.424C188.987 41.5193 188.718 40.4767 188.718 39.296C188.718 38.0847 188.979 37.0343 189.5 36.145C190.037 35.2557 190.765 34.5657 191.685 34.075C192.605 33.569 193.656 33.316 194.836 33.316C195.864 33.316 196.738 33.4693 197.458 33.776C198.179 34.0827 198.762 34.512 199.206 35.064C199.651 35.6007 199.973 36.2293 200.172 36.95C200.387 37.6707 200.494 38.4527 200.494 39.296C200.494 39.9707 200.387 40.6607 200.172 41.366C199.958 42.056 199.628 42.7 199.183 43.298C198.739 43.8807 198.156 44.356 197.435 44.724C196.715 45.0767 195.848 45.253 194.836 45.253ZM195.802 42.953C196.707 42.953 197.489 42.7997 198.148 42.493C198.808 42.1863 199.314 41.757 199.666 41.205C200.019 40.653 200.195 40.0167 200.195 39.296C200.195 38.514 200.011 37.8547 199.643 37.318C199.291 36.766 198.785 36.3443 198.125 36.053C197.481 35.7617 196.707 35.616 195.802 35.616C194.53 35.616 193.541 35.9533 192.835 36.628C192.13 37.3027 191.777 38.192 191.777 39.296C191.777 40.032 191.946 40.676 192.283 41.228C192.621 41.7647 193.088 42.1863 193.686 42.493C194.3 42.7997 195.005 42.953 195.802 42.953ZM200.195 28.969H203.185V45H200.402C200.356 44.6473 200.31 44.195 200.264 43.643C200.218 43.0757 200.195 42.5467 200.195 42.056V28.969ZM216.298 41.205H219.196C219.073 41.987 218.744 42.6847 218.207 43.298C217.686 43.9113 216.973 44.3943 216.068 44.747C215.163 45.0997 214.059 45.276 212.756 45.276C211.299 45.276 210.011 45.046 208.892 44.586C207.773 44.1107 206.899 43.4283 206.27 42.539C205.641 41.6497 205.327 40.5763 205.327 39.319C205.327 38.0617 205.634 36.9883 206.247 36.099C206.86 35.1943 207.711 34.5043 208.8 34.029C209.904 33.5537 211.192 33.316 212.664 33.316C214.167 33.316 215.416 33.5537 216.413 34.029C217.41 34.5043 218.146 35.225 218.621 36.191C219.112 37.1417 219.319 38.3607 219.242 39.848H208.34C208.417 40.4307 208.631 40.9597 208.984 41.435C209.352 41.9103 209.843 42.286 210.456 42.562C211.085 42.838 211.828 42.976 212.687 42.976C213.638 42.976 214.427 42.815 215.056 42.493C215.7 42.1557 216.114 41.7263 216.298 41.205ZM212.526 35.593C211.422 35.593 210.525 35.8383 209.835 36.329C209.145 36.8043 208.7 37.3947 208.501 38.1H216.275C216.198 37.3333 215.83 36.7277 215.171 36.283C214.527 35.823 213.645 35.593 212.526 35.593ZM226.791 43.045H225.71L229.896 33.569H233.162L227.665 45H224.836L219.454 33.569H222.743L226.791 43.045ZM237.807 28.555V31.177H234.334V28.555H237.807ZM234.564 33.569H237.554V45H234.564V33.569ZM239.545 41.205H242.305C242.474 41.7263 242.819 42.1557 243.34 42.493C243.877 42.815 244.574 42.976 245.433 42.976C246.016 42.976 246.468 42.9223 246.79 42.815C247.112 42.7077 247.334 42.5543 247.457 42.355C247.58 42.1403 247.641 41.9027 247.641 41.642C247.641 41.32 247.541 41.0747 247.342 40.906C247.143 40.722 246.836 40.5763 246.422 40.469C246.008 40.3617 245.479 40.262 244.835 40.17C244.191 40.0627 243.57 39.9323 242.972 39.779C242.374 39.6257 241.845 39.4263 241.385 39.181C240.925 38.9203 240.557 38.5983 240.281 38.215C240.02 37.8163 239.89 37.3333 239.89 36.766C239.89 36.214 240.02 35.7233 240.281 35.294C240.557 34.8647 240.933 34.5043 241.408 34.213C241.899 33.9217 242.466 33.6993 243.11 33.546C243.769 33.3927 244.475 33.316 245.226 33.316C246.361 33.316 247.304 33.4847 248.055 33.822C248.806 34.144 249.366 34.604 249.734 35.202C250.117 35.7847 250.309 36.4593 250.309 37.226H247.664C247.541 36.6587 247.296 36.2523 246.928 36.007C246.56 35.7463 245.993 35.616 245.226 35.616C244.475 35.616 243.907 35.731 243.524 35.961C243.141 36.191 242.949 36.5053 242.949 36.904C242.949 37.226 243.064 37.479 243.294 37.663C243.539 37.8317 243.892 37.9697 244.352 38.077C244.827 38.1843 245.418 38.2993 246.123 38.422C246.721 38.5447 247.288 38.6827 247.825 38.836C248.377 38.9893 248.868 39.1887 249.297 39.434C249.726 39.664 250.064 39.9783 250.309 40.377C250.57 40.7603 250.7 41.251 250.7 41.849C250.7 42.585 250.485 43.206 250.056 43.712C249.642 44.218 249.044 44.609 248.262 44.885C247.48 45.1457 246.545 45.276 245.456 45.276C244.49 45.276 243.654 45.1763 242.949 44.977C242.259 44.7623 241.684 44.494 241.224 44.172C240.764 43.8347 240.404 43.482 240.143 43.114C239.898 42.7307 239.729 42.3703 239.637 42.033C239.545 41.6957 239.514 41.4197 239.545 41.205Z" fill="white"/>
<path d="M266 31V45L277 38L266 31Z" fill="white"/>
</svg>
