<svg width="41" height="41" viewBox="0 0 41 41" fill="none" xmlns="http://www.w3.org/2000/svg">
<g clip-path="url(#clip0_50_37)">
<path d="M20.5 0.819824C9.63091 0.819824 0.820007 9.63072 0.820007 20.4998C0.820007 31.3689 9.63091 40.1798 20.5 40.1798C31.3691 40.1798 40.18 31.3689 40.18 20.4998C40.18 9.63072 31.3691 0.819824 20.5 0.819824ZM15.6825 28.6568H11.6973V15.832H15.6825V28.6568ZM13.6653 14.2576C12.4066 14.2576 11.5928 13.3658 11.5928 12.2629C11.5928 11.1375 12.4312 10.2724 13.7166 10.2724C15.0019 10.2724 15.7891 11.1375 15.8137 12.2629C15.8137 13.3658 15.0019 14.2576 13.6653 14.2576ZM30.2375 28.6568H26.2523V21.5494C26.2523 19.8951 25.6742 18.7717 24.2331 18.7717C23.1322 18.7717 22.4783 19.5322 22.1892 20.2641C22.0826 20.5244 22.056 20.8934 22.056 21.2604V28.6547H18.0687V19.9217C18.0687 18.3207 18.0175 16.982 17.9642 15.8299H21.4266L21.6091 17.6114H21.689C22.2138 16.775 23.4992 15.5409 25.6496 15.5409C28.2716 15.5409 30.2375 17.2977 30.2375 21.0738V28.6568Z" fill="white"/>
</g>
<defs>
<clipPath id="clip0_50_37">
<rect width="41" height="41" fill="white"/>
</clipPath>
</defs>
</svg>
