<svg width="41" height="41" viewBox="0 0 41 41" fill="none" xmlns="http://www.w3.org/2000/svg">
<g clip-path="url(#clip0_16_40)">
<path d="M20.5 0.820007C9.63091 0.820007 0.820007 9.63091 0.820007 20.5C0.820007 31.3691 9.63091 40.18 20.5 40.18C31.3691 40.18 40.18 31.3691 40.18 20.5C40.18 9.63091 31.3691 0.820007 20.5 0.820007ZM15.6825 28.657H11.6973V15.8322H15.6825V28.657ZM13.6653 14.2578C12.4066 14.2578 11.5928 13.366 11.5928 12.2631C11.5928 11.1377 12.4312 10.2726 13.7166 10.2726C15.0019 10.2726 15.7891 11.1377 15.8137 12.2631C15.8137 13.366 15.0019 14.2578 13.6653 14.2578ZM30.2375 28.657H26.2523V21.5496C26.2523 19.8953 25.6742 18.7719 24.2331 18.7719C23.1322 18.7719 22.4783 19.5324 22.1892 20.2643C22.0826 20.5246 22.056 20.8936 22.056 21.2606V28.6549H18.0687V19.9219C18.0687 18.3209 18.0175 16.9822 17.9642 15.8301H21.4266L21.6091 17.6116H21.689C22.2138 16.7752 23.4992 15.5411 25.6496 15.5411C28.2716 15.5411 30.2375 17.2979 30.2375 21.074V28.657Z" fill="black"/>
</g>
<defs>
<clipPath id="clip0_16_40">
<rect width="41" height="41" fill="white"/>
</clipPath>
</defs>
</svg>
