<svg width="42" height="42" viewBox="0 0 42 42" fill="none" xmlns="http://www.w3.org/2000/svg">
<path fill-rule="evenodd" clip-rule="evenodd" d="M7 7.4375C5.72365 7.4375 4.49957 7.94453 3.59705 8.84705C2.69453 9.74957 2.1875 10.9736 2.1875 12.25V29.75C2.1875 31.0264 2.69453 32.2504 3.59705 33.153C4.49957 34.0555 5.72365 34.5625 7 34.5625H35C36.2764 34.5625 37.5004 34.0555 38.403 33.153C39.3055 32.2504 39.8125 31.0264 39.8125 29.75V12.25C39.8125 10.9736 39.3055 9.74957 38.403 8.84705C37.5004 7.94453 36.2764 7.4375 35 7.4375H7ZM13.0025 14.6755C12.7172 14.4893 12.3707 14.4214 12.0363 14.486C11.7018 14.5506 11.4056 14.7427 11.2102 15.0218C11.0147 15.3008 10.9355 15.6449 10.9891 15.9813C11.0427 16.3177 11.225 16.6201 11.4975 16.8245L20.2475 22.9495C20.4681 23.1039 20.7308 23.1866 21 23.1866C21.2692 23.1866 21.5319 23.1039 21.7525 22.9495L30.5025 16.8245C30.6499 16.7283 30.7764 16.6035 30.8746 16.4574C30.9727 16.3114 31.0405 16.1471 31.0739 15.9743C31.1073 15.8015 31.1056 15.6238 31.0689 15.4517C31.0322 15.2795 30.9613 15.1166 30.8603 14.9724C30.7594 14.8283 30.6304 14.7059 30.4813 14.6126C30.3321 14.5193 30.1656 14.4569 29.9918 14.4292C29.818 14.4015 29.6405 14.409 29.4696 14.4513C29.2988 14.4936 29.1383 14.5699 28.9975 14.6755L21 20.2738L13.0025 14.6755Z" fill="black"/>
</svg>
