<svg width="30" height="30" viewBox="0 0 30 30" fill="none" xmlns="http://www.w3.org/2000/svg">
<g clip-path="url(#clip0_227_151)">
<path d="M5 0C3.67392 0 2.40215 0.526784 1.46447 1.46447C0.526784 2.40215 0 3.67392 0 5L0 9C0 20.598 9.402 30 21 30H25C26.3261 30 27.5979 29.4732 28.5355 28.5355C29.4732 27.5979 30 26.3261 30 25V22.236C30 21.6786 29.8447 21.1322 29.5514 20.6581C29.2582 20.184 28.8387 19.801 28.34 19.552L23.51 17.136C23.1255 16.9438 22.7041 16.8364 22.2744 16.8212C21.8448 16.806 21.4169 16.8834 21.0197 17.048C20.6226 17.2126 20.2654 17.4607 19.9725 17.7754C19.6796 18.0901 19.4578 18.4641 19.322 18.872L18.726 20.658C18.6163 20.9858 18.3909 21.2623 18.0919 21.4357C17.7929 21.6091 17.441 21.6675 17.102 21.6C14.9548 21.1705 12.9828 20.1152 11.4343 18.567C9.88573 17.0189 8.82999 15.0471 8.4 12.9C8.33248 12.561 8.39091 12.2091 8.56432 11.9101C8.73774 11.6111 9.01424 11.3857 9.342 11.276L11.56 10.536C12.2768 10.2966 12.8768 9.79559 13.2402 9.13299C13.6036 8.4704 13.7035 7.69508 13.52 6.962L12.348 2.274C12.1861 1.62504 11.8121 1.04877 11.2852 0.636764C10.7583 0.224754 10.1088 0.000630738 9.44 0L5 0Z" fill="black"/>
</g>
<defs>
<clipPath id="clip0_227_151">
<rect width="30" height="30" fill="white"/>
</clipPath>
</defs>
</svg>
